<svg width="203" height="239" viewBox="0 0 203 239" fill="none" xmlns="http://www.w3.org/2000/svg">
<path d="M189.258 67.5153C188.099 68.5456 186.917 69.5513 185.791 70.6163C185.191 71.1835 184.724 71.8893 184.135 72.4708C180.917 75.6525 177.686 78.8211 174.447 81.9816C172.866 83.5246 171.254 85.0363 169.663 86.5692C165.53 90.5515 161.392 94.5302 157.271 98.5251C154.427 101.282 151.614 104.071 148.772 106.831C147.229 108.329 145.655 109.795 144.026 111.295C143.956 111.314 143.968 111.31 143.955 111.246C143.892 111.024 143.841 110.867 143.797 110.662C143.803 110.615 143.813 110.52 143.885 110.498C144.089 110.092 144.337 109.71 144.338 109.326C144.364 102.471 144.362 95.6159 144.361 88.7608C144.36 79.0665 144.356 69.3723 144.353 59.678C144.353 58.9137 144.351 58.1493 144.446 57.3816C146.944 57.3783 149.346 57.3887 151.748 57.3677C152.128 57.3643 152.505 57.2189 152.943 57.1375C153.081 57.1415 153.16 57.1473 153.27 57.2297C154.225 57.7694 155.587 57.6838 156.149 57.1193C156.197 57.1082 156.295 57.1061 156.295 57.1061C156.295 57.1061 156.39 57.1305 156.463 57.1314C156.652 57.0039 156.767 56.8754 156.876 56.7451C156.869 56.7433 156.863 56.73 156.935 56.7307C158.285 55.6651 159.618 54.657 160.83 53.52C163.258 51.2422 165.622 48.8958 168.009 46.5736C169.106 45.506 170.172 44.4066 171.289 43.3602C173.806 41.0018 176.375 38.6979 178.869 36.3155C181.878 33.441 184.825 30.5026 187.81 27.6033C189.179 26.2742 190.605 25.0028 191.944 23.6451C192.607 22.972 193.132 22.1626 193.75 21.3729C193.872 21.2835 193.963 21.236 194.083 21.2176C194.173 21.2294 194.236 21.2122 194.286 21.194C194.274 21.1929 194.265 21.1708 194.344 21.1798C194.522 21.178 194.631 21.1889 194.72 21.1525C195.099 20.998 195.472 20.8294 195.847 20.6659C195.941 21.1002 196.116 21.5343 196.117 21.9688C196.132 30.1926 196.146 38.4165 196.116 46.6402C196.104 50.0965 196.004 53.5528 195.921 57.0086C195.868 59.2245 195.317 61.1612 193.429 62.6578C191.937 63.8399 190.688 65.3318 189.366 66.7187C189.216 66.8764 188.549 67.161 189.258 67.5153Z" fill="white"/>
<path d="M57.0947 110.066C56.0069 109.051 54.9191 108.036 53.7929 106.887C53.5062 106.318 53.3419 105.796 52.9954 105.464C51.1131 103.663 49.1814 101.913 47.2755 100.135C45.4391 98.4227 43.594 96.7189 41.789 94.9739C40.1328 93.3727 38.5388 91.7074 36.8923 90.096C34.7804 88.029 32.6571 85.9733 30.5125 83.9403C29.0292 82.5343 27.4895 81.1879 25.9978 79.7905C24.8479 78.7133 23.7113 77.6202 22.6079 76.4958C19.9784 73.8162 17.4326 71.0515 14.7374 68.4403C12.5751 66.3454 10.1815 64.4886 8.02055 62.3924C7.29831 61.6918 6.67813 60.6211 6.53682 59.6437C6.25507 57.6949 6.29958 55.6941 6.27765 53.7141C6.24401 50.6773 6.26786 47.6399 6.26768 44.6028C6.2672 36.7261 6.26606 28.8494 6.26946 20.9727C6.26961 20.6229 6.31187 20.2731 6.34061 19.829C6.94754 20.1357 7.41655 20.3727 7.89803 20.6779C8.67519 21.5228 9.43257 22.3069 10.2061 23.0748C11.9367 24.7929 13.6552 26.5238 15.4157 28.2109C17.5899 30.2943 19.8279 32.3117 21.9875 34.4098C23.3022 35.6871 24.4775 37.1076 25.7934 38.3836C27.7384 40.2697 29.7537 42.0833 31.7371 43.9299C33.8659 45.9118 36.0035 47.8845 38.1159 49.8838C39.5652 51.2554 40.9757 52.668 42.4083 54.0573C43.0729 54.7018 43.7269 55.3597 44.4247 55.9668C45.6161 57.0034 46.9109 57.7348 48.6039 57.5965C49.9074 57.49 51.2307 57.6411 52.5381 57.562C54.397 57.4496 56.097 58.0375 57.8234 58.6649C57.7678 61.2269 57.6682 63.6976 57.6593 66.1686C57.6527 67.9793 57.8086 69.7902 57.8164 71.6014C57.8403 77.1063 57.8283 82.6113 57.8286 88.1162C57.8289 92.8587 57.8362 97.6012 57.8187 102.344C57.8148 103.414 57.6583 104.486 57.6839 105.555C57.7207 107.096 57.9919 108.652 57.0947 110.066Z" fill="white"/>
<path d="M143.158 110.924C142.867 110.907 142.575 110.89 142.213 110.8C142.17 110.669 142.191 110.608 142.275 110.539C142.648 110.262 143.206 109.993 143.211 109.715C143.25 107.578 143.197 105.439 143.141 103.301C143.115 102.296 142.967 101.292 142.966 100.288C142.953 86.6204 142.956 72.9523 142.955 59.2843C142.955 58.8978 142.955 58.5113 142.955 58.1201C141.263 57.928 139.74 57.6552 138.21 57.6042C135.728 57.5213 133.242 57.5839 130.758 57.5851C128.178 57.5863 125.599 57.5659 123.02 57.5938C119.386 57.633 115.753 57.747 112.12 57.7434C111.053 57.7424 110.799 58.1693 110.79 59.1214C110.756 62.7521 110.642 66.382 110.61 70.0127C110.525 79.6349 110.462 89.2573 110.402 98.8797C110.382 102.032 110.378 105.186 110.412 108.338C110.419 108.993 110.629 109.645 110.743 110.374C110.734 110.55 110.728 110.651 110.65 110.76C110.387 110.738 110.196 110.708 109.993 110.614C109.934 110.346 109.887 110.141 109.841 109.936C109.817 107.631 109.797 105.326 109.766 103.022C109.762 102.692 109.708 102.363 109.709 101.922C109.741 101.545 109.741 101.279 109.75 100.918C109.781 98.5714 109.814 96.3197 109.825 94.0678C109.873 83.8495 109.923 73.6311 109.95 63.4127C109.956 61.4007 109.865 59.3884 109.839 57.3523C109.86 57.3284 109.841 57.268 109.91 57.2399C110.174 57.1772 110.37 57.1427 110.659 57.1036C111.507 57.0673 112.26 57.0353 113.107 56.9964C113.817 56.9953 114.434 57.0013 115.124 57.046C116.22 57.0559 117.244 57.0271 118.359 56.9911C118.938 56.9902 119.425 56.9965 119.984 57.0397C122.033 57.0928 124.009 57.1268 125.985 57.119C127.321 57.1137 128.656 57.0497 130.078 57.0128C130.456 57.0162 130.747 57.0189 131.11 57.056C132.808 57.0554 134.434 57.0204 136.132 56.9787C136.299 56.9775 136.394 56.9828 136.561 57.0263C138.529 57.0421 140.425 57.0197 142.405 56.9891C142.712 56.9958 142.935 57.0106 143.176 57.0802C143.363 57.3473 143.533 57.5596 143.711 57.8668C143.718 66.7236 143.718 75.4855 143.68 84.3196C143.667 85.2854 143.691 86.1793 143.721 87.1661C143.724 88.0061 143.721 88.7531 143.68 89.5729C143.673 90.8752 143.703 92.1047 143.739 93.4289C143.737 98.724 143.726 103.925 143.724 109.125C143.723 109.59 143.782 110.055 143.813 110.52C143.813 110.52 143.803 110.615 143.727 110.669C143.487 110.79 143.323 110.857 143.158 110.924Z" fill="white"/>
<path d="M7.88559 20.6097C7.41658 20.3727 6.94757 20.1357 6.34064 19.829C6.31189 20.2731 6.26963 20.6229 6.26948 20.9727C6.26608 28.8494 6.26723 36.7261 6.2677 44.6028C6.26788 47.6399 6.24403 50.6773 6.27767 53.7141C6.29961 55.6941 6.2551 57.6949 6.53684 59.6437C6.67816 60.6211 7.29833 61.6918 8.02057 62.3924C10.1816 64.4886 12.5751 66.3454 14.7375 68.4403C17.4327 71.0515 19.9785 73.8162 22.6079 76.4958C23.7113 77.6202 24.848 78.7133 25.9978 79.7905C27.4895 81.1879 29.0292 82.5343 30.5125 83.9403C32.6571 85.9733 34.7804 88.029 36.8923 90.096C38.5388 91.7074 40.1328 93.3727 41.789 94.9739C43.594 96.7189 45.4392 98.4227 47.2755 100.135C49.1814 101.913 51.1131 103.663 52.9954 105.464C53.3419 105.796 53.5062 106.318 53.762 106.824C53.1391 106.433 52.4592 106.023 51.8879 105.495C50.3411 104.067 48.8537 102.575 47.3179 101.134C45.6667 99.5857 43.9873 98.0673 42.2914 96.4027C42.1203 96.1701 41.9782 96.0704 41.8361 95.9707C41.8361 95.9707 41.8497 95.9678 41.847 95.9126C41.774 95.8276 41.7037 95.7978 41.6335 95.768C41.6335 95.768 41.6473 95.7658 41.6453 95.7109C41.5728 95.6258 41.5023 95.5954 41.4317 95.565C41.4317 95.565 41.4455 95.5632 41.4429 95.508C41.3697 95.4235 41.2992 95.3941 41.2287 95.3648C41.2287 95.3648 41.2426 95.362 41.2428 95.3049C41.1705 95.2201 41.098 95.1924 41.0255 95.1647C41.0255 95.1647 41.0395 95.1607 41.0406 95.104C40.9689 95.0189 40.8962 94.9904 40.8235 94.962C40.8235 94.962 40.8375 94.9586 40.8384 94.9015C40.7665 94.8165 40.6937 94.7887 40.6209 94.7609C40.6209 94.7609 40.6351 94.7568 40.6379 94.6982C40.5665 94.6133 40.4924 94.5869 40.4183 94.5605C40.4183 94.5605 40.4329 94.5547 40.4378 94.4967C40.3674 94.4113 40.2922 94.384 40.217 94.3566C40.217 94.3566 40.231 94.3525 40.2325 94.2947C40.1607 94.2099 40.0874 94.1828 40.0141 94.1558C40.0141 94.1558 40.0287 94.1506 40.0344 94.0912C39.9638 94.0062 39.8876 93.9806 39.8114 93.955C39.8114 93.955 39.8262 93.9488 39.8317 93.8897C39.7612 93.8047 39.6852 93.7787 39.6092 93.7527C39.6092 93.7527 39.6239 93.7468 39.6288 93.6875C39.5582 93.6026 39.4826 93.5769 39.407 93.5513C39.407 93.5513 39.4223 93.5444 39.4299 93.4842C39.36 93.3993 39.2824 93.3746 39.2049 93.3498C39.2049 93.3498 39.2203 93.3421 39.2275 93.2822C39.1573 93.1976 39.08 93.1729 39.0026 93.1481C39.0026 93.1481 39.0185 93.1399 39.0271 93.0793C38.9573 92.9948 38.8789 92.9709 38.8004 92.947C38.8004 92.947 38.8167 92.9372 38.8252 92.8772C38.7552 92.7929 38.6768 92.7686 38.5983 92.7443C38.5983 92.7443 38.6138 92.7357 38.6206 92.6756C38.5502 92.5912 38.473 92.567 38.3958 92.5427C38.3958 92.5427 38.4118 92.5336 38.4203 92.4733C38.3504 92.3889 38.272 92.3648 38.1936 92.3407C38.1936 92.3407 38.2097 92.3316 38.2181 92.2721C38.1484 92.1873 38.0702 92.1621 37.992 92.1368C37.992 92.1368 38.0065 92.1303 38.0105 92.0721C37.9394 91.9873 37.8645 91.9607 37.7896 91.9342C37.7896 91.9342 37.8045 91.9285 37.8108 91.8691C37.7405 91.7841 37.6638 91.7585 37.5872 91.7328C37.5872 91.7328 37.602 91.7265 37.6068 91.6679C37.536 91.583 37.4605 91.5567 37.3849 91.5305C37.3849 91.5305 37.3996 91.5247 37.4033 91.4668C37.3322 91.3818 37.2574 91.3548 37.1826 91.3277C37.1826 91.3277 37.1971 91.323 37.2001 91.2648C37.1288 91.1798 37.0546 91.153 36.9803 91.1262C36.9803 91.1262 36.9949 91.121 36.9981 91.0631C36.927 90.978 36.8527 90.9508 36.7784 90.9236C36.7784 90.9236 36.7929 90.9188 36.796 90.8613C36.7249 90.776 36.6507 90.7482 36.5765 90.7204C36.5765 90.7204 36.5907 90.7168 36.5918 90.6599C36.5201 90.5746 36.4473 90.5463 36.3745 90.5179C36.3745 90.5179 36.3887 90.5146 36.3894 90.4581C36.3176 90.3728 36.2452 90.344 36.1727 90.3153C36.1727 90.3153 36.1868 90.3123 36.1869 90.2562C36.115 90.1709 36.0429 90.1417 35.9709 90.1125C35.9709 90.1125 35.9849 90.1099 35.9839 90.0542C35.9115 89.9691 35.8402 89.9397 35.7688 89.9104C35.7688 89.9104 35.7834 89.9087 35.7688 89.8435C35.625 89.7588 35.4957 89.7393 35.3665 89.7198C35.3665 89.7198 35.3835 89.7025 35.4082 89.6412C35.2755 89.4203 35.1179 89.2607 34.9604 89.1011C34.9604 89.1011 34.9743 89.0988 34.9721 89.0439C34.8994 88.9591 34.829 88.9293 34.7586 88.8994C34.7586 88.8994 34.7725 88.897 34.7715 88.8412C34.6991 88.7562 34.6277 88.7272 34.5563 88.6981C34.5563 88.6981 34.5706 88.6953 34.5531 88.6352C34.4479 88.5453 34.3602 88.5156 34.2724 88.4858C34.1157 88.3369 33.9591 88.188 33.7901 87.9077C33.4985 87.6153 33.2193 87.4544 32.94 87.2935C32.94 87.2935 32.9523 87.2779 32.9542 87.2227C32.8823 87.1397 32.8087 87.1119 32.735 87.0842C32.735 87.0842 32.7494 87.08 32.7525 87.0219C32.6812 86.9369 32.6069 86.9099 32.5326 86.8829C32.5326 86.8829 32.5471 86.878 32.5508 86.8189C32.4798 86.7339 32.405 86.7081 32.3302 86.6822C32.3302 86.6822 32.345 86.6758 32.3495 86.6185C32.279 86.5331 32.204 86.505 32.1289 86.4769C32.1289 86.4769 32.143 86.4736 32.1436 86.417C32.0718 86.3318 31.9993 86.3034 31.9268 86.275C31.9268 86.275 31.9409 86.2716 31.9416 86.2149C31.8697 86.1297 31.7971 86.1014 31.7245 86.0731C31.7245 86.0731 31.7386 86.0696 31.7396 86.0131C31.668 85.9277 31.5955 85.8989 31.5231 85.8701C31.5231 85.8701 31.537 85.8671 31.5365 85.8111C31.4645 85.7258 31.393 85.6965 31.3214 85.6671C31.3214 85.6671 31.336 85.6645 31.3173 85.6071C31.2141 85.5181 31.1295 85.4865 31.045 85.4549C31.045 85.4549 31.023 85.4737 30.9966 85.3918C30.885 85.2974 30.7998 85.2848 30.7147 85.2722C30.7147 85.2722 30.7294 85.2582 30.7341 85.2014C30.6631 85.1178 30.5873 85.0911 30.5115 85.0643C30.5115 85.0643 30.5259 85.0591 30.5306 85.0004C30.46 84.9153 30.3846 84.8889 30.3092 84.8625C30.3092 84.8625 30.3237 84.857 30.3284 84.7981C30.258 84.7128 30.1828 84.6864 30.1077 84.6601C30.1077 84.6601 30.1217 84.6547 30.1235 84.5977C30.0523 84.5126 29.9791 84.4845 29.906 84.4565C29.906 84.4565 29.9199 84.4524 29.9222 84.395C29.8509 84.3099 29.7772 84.282 29.7036 84.2542C29.7036 84.2542 29.7175 84.2506 29.7179 84.1942C29.646 84.1091 29.5737 84.0803 29.5015 84.0516C29.5015 84.0516 29.5153 84.0485 29.515 83.9924C29.443 83.9072 29.3713 83.8781 29.2997 83.8489C29.2997 83.8489 29.3135 83.8462 29.312 83.7909C29.2396 83.7057 29.1687 83.6759 29.0978 83.6461C29.0978 83.6461 29.1116 83.6438 29.1103 83.5879C29.0377 83.5032 28.9662 83.4744 28.8948 83.4456C28.8948 83.4456 28.9087 83.4425 28.909 83.3858C28.8368 83.3009 28.7643 83.2728 28.6918 83.2447C28.6918 83.2447 28.7058 83.2412 28.7067 83.1845C28.6353 83.0991 28.563 83.0703 28.4908 83.0415C28.4908 83.0415 28.5046 83.0383 28.5037 82.9826C28.4317 82.8974 28.3605 82.8679 28.2894 82.8384C28.2894 82.8384 28.303 82.8355 28.3018 82.7801C28.2295 82.6949 28.1585 82.6651 28.0875 82.6353C28.0875 82.6353 28.1012 82.6332 28.096 82.5802C28.0221 82.4955 27.9535 82.4638 27.8849 82.4321C27.8849 82.4321 27.8989 82.431 27.8956 82.3769C27.8225 82.2921 27.7528 82.2613 27.683 82.2306C27.683 82.2306 27.6969 82.229 27.6909 82.1765C27.617 82.0917 27.5492 82.0596 27.4814 82.0274C27.4814 82.0274 27.4959 82.0261 27.4814 81.975C27.3964 81.8876 27.3258 81.8512 27.2552 81.8148C25.6674 80.3206 24.0796 78.8264 22.4548 77.2003C20.7105 75.3162 19.007 73.5602 17.2856 71.8219C17.1865 71.7218 16.9415 71.7659 16.7643 71.7429C16.7643 71.7429 16.7825 71.7259 16.8092 71.6587C16.6765 71.506 16.5171 71.4205 16.3577 71.335C16.3577 71.335 16.3685 71.3148 16.3833 71.2557C16.3171 71.174 16.2361 71.1516 16.1551 71.1291C16.1551 71.1291 16.1721 71.1171 16.1827 71.0569C16.1131 70.9732 16.0328 70.9497 15.9526 70.9263C15.9526 70.9263 15.9693 70.9161 15.979 70.8552C15.9092 70.7711 15.8298 70.7479 15.7504 70.7247C15.7504 70.7247 15.7671 70.7137 15.7759 70.6535C15.706 70.5696 15.6272 70.5459 15.5483 70.5221C15.5483 70.5221 15.5648 70.5119 15.5736 70.4516C15.5036 70.3674 15.4249 70.3437 15.3461 70.3199C15.3461 70.3199 15.3622 70.3101 15.3702 70.2505C15.3001 70.1662 15.222 70.1415 15.144 70.1168C15.144 70.1168 15.1595 70.1088 15.1668 70.0485C15.0967 69.9639 15.0193 69.9397 14.9419 69.9154C14.9419 69.9154 14.9579 69.9061 14.9662 69.8459C14.8963 69.7616 14.818 69.7377 14.7398 69.7137C14.7398 69.7137 14.7563 69.7039 14.7658 69.6429C14.696 69.5586 14.6167 69.5354 14.5374 69.5122C14.5374 69.5122 14.5536 69.5016 14.5618 69.4423C14.4917 69.3582 14.4134 69.3333 14.3352 69.3083C14.3352 69.3083 14.3504 69.3009 14.3569 69.2413C14.2866 69.1566 14.2097 69.1315 14.1329 69.1065C14.1329 69.1065 14.1483 69.0988 14.1553 69.0392C14.085 68.9545 14.0079 68.9295 13.9307 68.9045C13.9307 68.9045 13.9461 68.8968 13.9528 68.8381C13.8829 68.753 13.8062 68.7265 13.7296 68.7001C13.7296 68.7001 13.7438 68.6949 13.7456 68.6382C13.6744 68.5529 13.6014 68.5243 13.5285 68.4957C13.5285 68.4957 13.5423 68.4922 13.5426 68.4358C13.4707 68.3506 13.3986 68.322 13.3264 68.2933C13.3264 68.2933 13.3402 68.2901 13.3397 68.2345C13.2677 68.1492 13.1961 68.1195 13.1246 68.0898C13.1246 68.0898 13.1385 68.0877 13.1351 68.0334C13.0621 67.9483 12.9925 67.9175 12.9228 67.8867C12.9228 67.8867 12.9382 67.8841 12.9169 67.8311C12.8158 67.7442 12.736 67.7103 12.6563 67.6765C11.7926 66.8958 10.9289 66.115 9.99701 65.2237C9.84864 65.0974 9.76842 65.0817 9.6882 65.0661C9.6882 65.0661 9.70164 65.0558 9.70013 65.0013C9.62739 64.9172 9.55616 64.8877 9.48493 64.8583C9.48493 64.8583 9.4987 64.8554 9.49725 64.8001C9.42488 64.7149 9.35396 64.685 9.28305 64.6551C9.28305 64.6551 9.29707 64.6532 9.28972 64.6012C9.21518 64.5166 9.148 64.484 9.08081 64.4513C9.08081 64.4513 9.09498 64.4506 9.0908 64.3971C9.01753 64.3122 8.94843 64.2809 8.87933 64.2495C8.87933 64.2495 8.89351 64.2483 8.88453 64.1977C8.80974 64.1131 8.74392 64.079 8.6781 64.0449C8.6781 64.0449 8.6938 64.0434 8.6754 63.9997C8.59679 63.9173 8.53658 63.8786 8.47637 63.8398C8.47637 63.8398 8.49281 63.8406 8.47688 63.7948C8.39825 63.7126 8.33556 63.6761 8.27287 63.6397C8.27287 63.6397 8.28816 63.6404 8.27921 63.5899C8.20366 63.5063 8.13704 63.4732 8.07043 63.4401C8.07043 63.4401 8.08508 63.4396 8.07497 63.3898C7.99933 63.3058 7.93378 63.2716 7.86824 63.2374C7.86824 63.2374 7.883 63.2374 7.87398 63.1862C7.79844 63.1024 7.7319 63.0699 7.66536 63.0373C7.66536 63.0373 7.67955 63.0365 7.67505 62.9829C7.60137 62.8983 7.5322 62.8672 7.46304 62.8362C7.46304 62.8362 7.47713 62.8349 7.47248 62.7817C7.39902 62.6967 7.33021 62.6649 7.26141 62.6331C7.26141 62.6331 7.27564 62.6323 7.26867 62.5803C7.19431 62.4957 7.12692 62.4631 7.05953 62.4305C7.05953 62.4305 7.07339 62.4297 7.07332 62.3724C6.99402 62.2164 6.91477 62.1177 6.83552 62.019C6.66012 61.7998 6.48471 61.5805 6.28769 61.2347C6.19304 61.0083 6.12002 60.9085 6.047 60.8087C6.047 60.8087 6.06089 60.8128 6.08099 60.7294C6.04156 59.775 5.93829 58.9044 5.92931 58.0328C5.84662 50.0033 5.77178 41.9737 5.71246 33.944C5.67945 29.4766 5.68022 25.009 5.66577 20.5414C5.73745 19.9802 5.80913 19.419 5.88082 18.8577C6.32744 19.0978 6.78057 19.3267 7.21796 19.5826C7.43832 19.7114 7.63013 19.8891 7.8613 20.179C7.88703 20.4122 7.88631 20.511 7.88559 20.6097Z" fill="white"/>
<path d="M7.89804 20.6779C7.88629 20.511 7.88701 20.4122 7.89247 20.2395C9.44949 21.6718 10.9887 23.192 12.5608 24.6773C13.1554 25.2391 13.8654 25.6796 14.455 26.2459C16.7705 28.4699 19.065 30.7157 21.3552 32.9658C22.8228 34.4077 24.2315 35.9115 25.734 37.3156C27.9523 39.3886 30.2516 41.3751 32.4778 43.44C35.0045 45.7836 37.4886 48.1732 40.0416 50.6535C40.1456 50.8141 40.1991 50.8639 40.2527 50.9137C40.2527 50.9137 40.2346 50.9108 40.2514 50.956C40.3309 51.0377 40.3936 51.0742 40.4563 51.1108C40.4563 51.1108 40.4405 51.1109 40.4553 51.1575C40.533 51.2402 40.5959 51.2762 40.6588 51.3123C40.6588 51.3123 40.6439 51.3118 40.6537 51.3619C40.7294 51.4455 40.7952 51.479 40.861 51.5126C40.861 51.5126 40.8465 51.5133 40.8565 51.5631C40.9319 51.6473 40.9973 51.6815 41.0627 51.7158C41.0627 51.7158 41.0474 51.7168 41.0623 51.7633C41.1398 51.8462 41.2024 51.8825 41.2651 51.9189C41.2651 51.9189 41.2498 51.9186 41.2611 51.9674C41.3374 52.0507 41.4023 52.0853 41.4672 52.1199C41.4672 52.1199 41.4521 52.1204 41.4656 52.1678C41.5424 52.2512 41.6056 52.2871 41.6689 52.323C41.6689 52.323 41.6533 52.3235 41.6689 52.3695C41.7467 52.4521 41.809 52.4888 41.8713 52.5254C41.8713 52.5254 41.856 52.5249 41.8676 52.5738C41.9439 52.6571 42.0087 52.6914 42.0735 52.7257C42.0735 52.7257 42.0588 52.7263 42.0717 52.7744C42.1484 52.8578 42.2121 52.8929 42.2759 52.9281C42.2759 52.9281 42.2616 52.9281 42.2683 52.9806C42.3426 53.0646 42.4102 53.0961 42.4778 53.1276C42.4778 53.1276 42.4637 53.1296 42.475 53.1785C42.5508 53.2627 42.6153 53.2979 42.6799 53.3332C42.6799 53.3332 42.6643 53.3339 42.6799 53.3796C42.7575 53.4623 42.8196 53.4993 42.8817 53.5363C42.8817 53.5363 42.8659 53.5359 42.8805 53.5829C42.9582 53.6654 43.0213 53.701 43.0843 53.7366C43.0843 53.7366 43.0698 53.7366 43.0805 53.7861C43.1562 53.8697 43.2213 53.9039 43.2863 53.9381C43.2863 53.9381 43.272 53.9386 43.2823 53.9887C43.3582 54.0722 43.4238 54.1055 43.4893 54.1388C43.4893 54.1388 43.4753 54.1397 43.4719 54.2062C43.6898 54.4322 43.9111 54.5918 44.1324 54.7513C45.3708 56.3067 46.933 57.0911 49.1186 56.8379C52.0704 56.9203 54.8612 56.9392 57.652 56.9581C57.652 56.9581 57.635 56.9688 57.6523 57.0197C57.8476 57.1661 58.0256 57.2617 58.2267 57.4097C58.2535 57.5001 58.2573 57.5381 58.2054 57.6176C58.0392 57.964 57.9287 58.2688 57.8182 58.5737C56.0971 58.0375 54.397 57.4496 52.5381 57.562C51.2307 57.6411 49.9075 57.49 48.6039 57.5965C46.9109 57.7348 45.6161 57.0034 44.4247 55.9668C43.7269 55.3597 43.0729 54.7018 42.4083 54.0573C40.9757 52.668 39.5652 51.2554 38.1159 49.8838C36.0035 47.8845 33.8659 45.9118 31.7371 43.9299C29.7537 42.0833 27.7384 40.2697 25.7934 38.3836C24.4775 37.1076 23.3022 35.6871 21.9875 34.4098C19.8279 32.3117 17.5899 30.2943 15.4157 28.2109C13.6552 26.5238 11.9367 24.7929 10.2061 23.0748C9.43258 22.3069 8.6752 21.5228 7.89804 20.6779Z" fill="white"/>
<path d="M57.8234 58.6649C57.9288 58.2688 58.0393 57.964 58.2463 57.648C58.3924 57.6838 58.4419 57.7306 58.4812 57.8717C58.4693 62.9658 58.4677 67.9657 58.4481 73.0495C58.4414 73.5942 58.4528 74.0549 58.455 74.612C58.4531 76.0797 58.4603 77.451 58.4509 78.8891C58.4445 79.0921 58.4547 79.2283 58.4551 79.4608C58.437 86.4878 58.41 93.4186 58.4284 100.349C58.4373 103.712 58.5312 107.075 58.5374 110.471C58.4705 110.579 58.4527 110.653 58.4302 110.789C58.4195 110.935 58.4136 111.018 58.4077 111.102C57.9648 110.804 57.5219 110.505 57.0869 110.137C57.992 108.652 57.7208 107.096 57.6839 105.555C57.6584 104.486 57.8149 103.414 57.8188 102.344C57.8363 97.6012 57.829 92.8587 57.8287 88.1162C57.8284 82.6113 57.8404 77.1063 57.8165 71.6014C57.8087 69.7902 57.6528 67.9793 57.6594 66.1686C57.6683 63.6976 57.7679 61.2269 57.8234 58.6649Z" fill="white"/>
<path d="M193.72 21.4149C193.132 22.1626 192.607 22.972 191.944 23.6451C190.605 25.0029 189.179 26.2742 187.81 27.6033C184.825 30.5026 181.878 33.441 178.869 36.3155C176.375 38.6979 173.806 41.0018 171.289 43.3602C170.172 44.4066 169.106 45.506 168.009 46.5736C165.622 48.8958 163.258 51.2422 160.83 53.52C159.618 54.657 158.285 55.6651 156.94 56.6666C156.882 56.5163 156.89 56.4308 156.899 56.3453C158.288 55.0663 159.699 53.8102 161.062 52.5033C163.436 50.2258 165.777 47.9125 168.139 45.6226C170.126 43.6973 172.109 41.7682 174.122 39.8704C175.698 38.3843 177.352 36.9795 178.906 35.4715C180.209 34.2065 181.392 32.8176 182.677 31.5326C184.192 30.0182 185.755 28.5514 187.306 27.0737C188.57 25.8691 189.848 24.6787 191.229 23.4294C191.385 23.324 191.432 23.2712 191.479 23.2185C191.479 23.2185 191.477 23.237 191.518 23.2154C191.599 23.134 191.639 23.0741 191.678 23.0143C191.678 23.0143 191.679 23.0322 191.718 23.0084C191.798 22.9276 191.84 22.8706 191.881 22.8135C191.881 22.8135 191.879 22.8304 191.925 22.8143C192.007 22.7356 192.043 22.6731 192.079 22.6105C192.079 22.6105 192.079 22.6249 192.128 22.6123C192.211 22.5359 192.246 22.4722 192.281 22.4085C192.281 22.4085 192.282 22.4231 192.329 22.4089C192.412 22.3315 192.448 22.2685 192.483 22.2055C192.483 22.2055 192.483 22.2197 192.536 22.2137C192.62 22.1396 192.651 22.0715 192.682 22.0034C192.682 22.0034 192.684 22.0172 192.738 22.0118C192.822 21.938 192.853 21.8697 192.884 21.8013C192.884 21.8013 192.886 21.8151 192.941 21.8114C193.025 21.7382 193.055 21.6687 193.085 21.5992C193.085 21.5992 193.089 21.613 193.144 21.6117C193.229 21.5394 193.258 21.4685 193.286 21.3975C193.286 21.3975 193.292 21.413 193.357 21.4304C193.522 21.4368 193.621 21.4258 193.72 21.4149Z" fill="white"/>
<path d="M189.321 67.4846C188.549 67.161 189.216 66.8764 189.366 66.7187C190.688 65.3318 191.937 63.8399 193.429 62.6578C195.317 61.1612 195.868 59.2245 195.921 57.0086C196.004 53.5528 196.104 50.0965 196.116 46.6402C196.146 38.4165 196.132 30.1926 196.117 21.9688C196.116 21.5343 195.941 21.1002 195.847 20.6659C195.472 20.8294 195.099 20.998 194.72 21.1525C194.631 21.1889 194.522 21.178 194.36 21.1118C194.813 20.6011 195.328 20.1676 195.901 19.7799C196.197 20.0879 196.436 20.35 196.694 20.7047C196.705 23.0925 196.697 25.3878 196.669 27.7045C196.626 27.7852 196.641 27.8352 196.702 27.9705C196.665 33.3053 196.597 38.5455 196.581 43.7858C196.572 46.606 196.691 49.4266 196.677 52.2466C196.668 54.0239 196.502 55.7999 196.443 57.5776C196.425 58.117 196.531 58.6604 196.58 59.202C195.73 60.4132 194.984 61.718 194.004 62.8137C192.551 64.4382 190.933 65.9145 189.321 67.4846Z" fill="white"/>
<path d="M63.184 110.894C62.8084 110.895 62.5252 110.876 62.0882 110.833C61.0472 110.757 60.16 110.707 59.277 110.606C59.335 110.473 59.3889 110.391 59.5376 110.309C61.857 110.129 64.123 110.698 66.3191 109.936C66.4823 109.879 66.7059 109.995 66.9012 110.032C67.3858 110.124 67.8713 110.3 68.3546 110.294C71.4093 110.255 74.4636 110.119 77.5179 110.124C81.3056 110.13 85.093 110.244 88.8806 110.306C89.654 110.319 90.4295 110.274 91.2009 110.315C91.8919 110.351 92.5109 110.265 92.9941 109.779C93.0654 110.016 93.1281 110.182 93.1909 110.348C93.3672 110.084 93.4006 109.837 93.4012 109.59C93.4076 107.186 93.4016 104.782 93.4179 102.377C93.4205 101.988 93.5147 101.6 93.5666 101.211C93.5835 104.31 93.6004 107.409 93.6126 110.601C87.2299 110.756 80.852 110.831 74.4739 110.874C70.7416 110.9 67.0089 110.876 63.184 110.894Z" fill="white"/>
<path d="M58.4914 57.7775C58.4419 57.7307 58.3923 57.6838 58.3019 57.6065C58.2573 57.5381 58.2535 57.5001 58.2344 57.3417C58.244 57.0875 58.2689 56.9538 58.2939 56.8201C59.5018 56.8519 60.7096 56.8837 62.0742 56.9467C62.3315 56.9834 62.432 56.9888 62.5363 57.0141C62.5402 57.034 62.5992 57.0404 62.5992 57.0404C62.5992 57.0404 62.6296 56.997 62.7274 56.9998C64.6886 56.999 66.552 56.9956 68.4153 56.9921C68.4153 56.9921 68.4567 56.9689 68.5513 57.0281C69.8197 57.1095 70.9936 57.1531 72.1673 57.1502C78.8839 57.1334 85.6005 57.1036 92.317 57.0875C92.681 57.0866 93.0452 57.1702 93.381 57.2836C93.3163 57.4982 93.2798 57.6437 93.1936 57.8322C93.1672 58.1124 93.1906 58.3496 93.22 58.6625C93.2155 58.8893 93.2051 59.0406 93.1569 59.2305C93.0505 59.3807 92.9818 59.4923 92.9059 59.6156C92.7668 59.4395 92.6722 59.3198 92.5789 59.1151C92.4508 58.6155 92.3215 58.2008 92.1451 57.7441C91.7948 57.7313 91.4917 57.7604 91.1499 57.7507C91.0078 57.6821 90.9042 57.6523 90.712 57.6109C90.2657 57.6062 89.9082 57.6132 89.4607 57.6163C88.7695 57.6121 88.1682 57.6117 87.4737 57.6027C86.6946 57.7201 86.0086 57.8463 85.2354 57.9738C76.6458 57.8434 68.1435 57.7117 59.5685 57.5911C59.1609 57.6607 58.8262 57.7191 58.4914 57.7775Z" fill="white"/>
<path d="M109.742 101.013C109.741 101.279 109.741 101.545 109.672 101.857C107.627 100.078 105.658 98.2432 103.67 96.4295C100.706 93.7254 97.7274 91.0365 94.7564 88.3399C94.5033 88.1102 94.2593 87.8705 94.0127 87.4727C94.0137 86.8345 94.0132 86.3592 94.0621 85.8763C94.1116 85.8686 94.2109 85.8561 94.2628 85.9037C94.5993 86.4778 94.7866 87.0979 95.1866 87.5138C96.5163 88.8966 97.8898 90.2418 99.3077 91.5345C101.078 93.1488 102.887 94.7237 104.722 96.2645C106.103 97.424 107.551 98.5031 108.972 99.6966C109.099 100.269 108.893 100.967 109.742 101.013Z" fill="white"/>
<path d="M93.5734 101.119C93.5147 101.6 93.4205 101.988 93.4178 102.377C93.4016 104.782 93.4076 107.186 93.4012 109.59C93.4005 109.837 93.3672 110.084 93.1909 110.348C93.1281 110.182 93.0654 110.016 92.9896 109.706C92.99 108.865 93.032 108.166 93.0108 107.468C92.9631 105.9 92.8547 104.332 92.8237 102.764C92.7444 98.75 92.694 94.7358 92.689 90.7022C92.7561 90.4903 92.7662 90.2981 92.7788 90.0132C92.7775 89.2411 92.7737 88.5615 92.8265 87.8189C92.8832 86.2113 92.8832 84.6668 92.8832 83.1223C92.9648 83.1205 93.0465 83.1187 93.1282 83.1169C93.1966 83.5611 93.2649 84.0054 93.3457 84.5279C93.3798 84.7629 93.4015 84.9197 93.4109 85.1691C93.3868 87.3594 93.3749 89.4573 93.3268 91.6055C93.3137 91.9343 93.3368 92.2127 93.3761 92.5869C93.4523 94.7068 93.5123 96.7307 93.5724 98.7547C93.575 99.512 93.5775 100.269 93.5734 101.119Z" fill="white"/>
<path d="M196.688 27.683C196.697 25.3878 196.705 23.0925 196.702 20.6221C196.758 20.0248 196.827 19.6026 196.895 19.1803C196.907 20.5806 196.93 21.981 196.931 23.3813C196.935 33.6592 196.944 43.9371 196.925 54.215C196.922 55.8434 196.79 57.4717 196.649 59.151C196.531 58.6604 196.425 58.117 196.443 57.5776C196.502 55.7999 196.668 54.0239 196.677 52.2466C196.691 49.4266 196.572 46.606 196.581 43.7858C196.597 38.5455 196.665 33.3053 196.708 27.9221C196.705 27.7792 196.688 27.683 196.688 27.683Z" fill="white"/>
<path d="M110.566 57.1081C110.37 57.1427 110.175 57.1772 109.86 57.2345C109.687 57.2972 109.633 57.3372 109.54 57.3772C109.5 57.3772 109.421 57.3807 109.351 57.3272C108.614 57.2312 107.946 57.1529 107.278 57.1522C102.774 57.1472 98.2701 57.1587 93.7533 57.1612C93.7402 57.1576 93.7145 57.1663 93.6918 57.1283C93.669 57.0903 93.63 57.0108 93.63 57.0108C97.0439 56.927 100.458 56.7772 103.872 56.771C117.242 56.7466 130.613 56.7676 144.079 56.8459C144.166 57.0028 144.158 57.0855 144.087 57.1734C143.94 57.1854 143.856 57.1922 143.72 57.1555C143.497 57.0831 143.328 57.0542 143.158 57.0254C142.935 57.0106 142.712 56.9958 142.315 56.9694C140.257 56.9679 138.373 56.978 136.49 56.9881C136.394 56.9828 136.299 56.9775 136.041 56.9592C134.265 56.9713 132.651 56.9964 131.038 57.0215C130.747 57.0189 130.456 57.0163 129.989 56.9881C126.512 56.976 123.213 56.9894 119.913 57.0028C119.425 56.9965 118.938 56.9902 118.269 56.9708C117.075 56.9742 116.064 56.9908 115.052 57.0074C114.434 57.0013 113.817 56.9953 113.018 56.9758C112.08 57.0109 111.323 57.0595 110.566 57.1081Z" fill="white"/>
<path d="M5.58598 20.5894C5.68025 25.009 5.67948 29.4766 5.71249 33.944C5.77181 41.9737 5.84666 50.0033 5.92935 58.0328C5.93832 58.9044 6.04159 59.775 6.07856 60.7362C5.92121 60.1108 5.67448 59.3959 5.66984 58.6794C5.63977 54.0417 5.68993 49.4034 5.6617 44.7656C5.61476 37.056 5.52791 29.3467 5.46136 21.6372C5.45848 21.3041 5.49043 20.9707 5.58598 20.5894Z" fill="white"/>
<path d="M93.4094 57.2145C93.0453 57.1702 92.6811 57.0866 92.3171 57.0875C85.6006 57.1036 78.884 57.1334 72.1675 57.1502C70.9937 57.1531 69.8198 57.1095 68.5731 57.0376C76.7419 56.9958 84.9835 57.0039 93.3225 57.063C93.4199 57.1141 93.4289 57.2133 93.4236 57.2126C93.4184 57.2118 93.4094 57.2145 93.4094 57.2145Z" fill="white"/>
<path d="M144.149 57.1682C144.157 57.0855 144.166 57.0028 144.173 56.8578C144.458 56.7864 144.743 56.7772 145.182 56.8295C146.498 56.9114 147.661 56.9169 148.822 56.9561C150.176 57.0018 151.53 57.0769 152.884 57.1392C152.505 57.2189 152.128 57.3643 151.748 57.3677C149.346 57.3887 146.944 57.3783 144.406 57.3514C144.224 57.2773 144.184 57.2252 144.149 57.1682Z" fill="white"/>
<path d="M93.5804 98.6625C93.5124 96.7307 93.4524 94.7068 93.3932 92.5107C93.3837 92.0774 93.3735 91.8162 93.3632 91.555C93.375 89.4572 93.3868 87.3594 93.4526 85.1352C93.6043 85.032 93.7691 85.0306 93.7884 85.0829C93.8842 85.3421 93.9417 85.6155 94.0127 85.8839C94.0132 86.3592 94.0138 86.8345 94.0103 87.3989C93.8889 87.4289 93.7713 87.3697 93.5883 87.2777C93.5883 90.9849 93.5883 94.7775 93.5804 98.6625Z" fill="white"/>
<path d="M16.7659 71.8159C16.9416 71.7659 17.1866 71.7218 17.2857 71.8219C19.0071 73.5602 20.7106 75.3162 22.433 77.1378C22.1563 77.0146 21.8254 76.8622 21.5791 76.623C19.965 75.0555 18.3691 73.4692 16.7659 71.8159Z" fill="white"/>
<path d="M152.943 57.1375C151.53 57.0769 150.176 57.0018 148.822 56.9561C147.661 56.9169 146.498 56.9114 145.267 56.8488C148.415 56.7964 151.634 56.8073 154.851 56.7579C155.482 56.7483 156.109 56.505 156.818 56.3574C156.89 56.4308 156.882 56.5163 156.868 56.6659C156.863 56.73 156.869 56.7433 156.812 56.7585C156.633 56.8926 156.511 57.0116 156.39 57.1305L156.295 57.1061C156.295 57.1061 156.197 57.1082 156.054 57.1151C155.02 57.1323 154.13 57.1427 153.239 57.1531C153.16 57.1473 153.081 57.1415 152.943 57.1375Z" fill="white"/>
<path d="M57.6055 56.8817C54.8612 56.9392 52.0704 56.9203 49.2118 56.8539C51.949 56.806 54.754 56.8056 57.6055 56.8817Z" fill="white"/>
<path d="M195.843 19.734C195.328 20.1676 194.813 20.6011 194.282 21.1027C194.265 21.1708 194.274 21.1929 194.226 21.1748C194.137 21.1674 194.096 21.178 194.055 21.1886C193.963 21.236 193.872 21.2835 193.75 21.3729C193.621 21.4258 193.522 21.4368 193.351 21.425C194.297 20.3775 195.087 19.0448 196.687 18.9523C196.379 19.2718 196.111 19.5029 195.843 19.734Z" fill="white"/>
<path d="M59.2727 110.657C60.16 110.707 61.0472 110.757 62.0044 110.849C60.9908 110.967 59.9071 111.042 58.7289 111.119C58.5964 111.119 58.5586 111.116 58.4642 111.107C58.4135 111.018 58.4194 110.935 58.4722 110.771C58.5191 110.69 58.5917 110.634 58.6743 110.66C58.9289 110.676 59.1008 110.667 59.2727 110.657Z" fill="white"/>
<path d="M68.3682 56.9105C66.552 56.9956 64.6887 56.999 62.7039 56.9874C62.5825 56.9724 62.5325 56.9941 62.5325 56.9941C62.432 56.9888 62.3315 56.9834 62.156 56.9685C62.3839 56.8947 62.6868 56.7748 62.9896 56.7752C64.7668 56.7775 66.5439 56.8079 68.3682 56.9105Z" fill="white"/>
<path d="M195.901 19.7799C196.111 19.5029 196.379 19.2718 196.716 19.0247C196.856 19 196.902 19.0294 196.909 19.1386C196.827 19.6026 196.758 20.0248 196.683 20.5296C196.436 20.35 196.197 20.0879 195.901 19.7799Z" fill="white"/>
<path d="M32.9601 87.3593C33.2193 87.4544 33.4985 87.6153 33.7752 87.8549C33.5085 87.7641 33.2443 87.5946 32.9601 87.3593Z" fill="white"/>
<path d="M58.2222 56.7995C58.269 56.9538 58.244 57.0875 58.2113 57.2892C58.0257 57.2617 57.8477 57.1661 57.6473 57.011C57.8 56.8939 57.9752 56.8364 58.2222 56.7995Z" fill="white"/>
<path d="M34.9647 89.1691C35.1179 89.2607 35.2755 89.4203 35.3991 89.649C35.2331 89.5577 35.1011 89.3974 34.9647 89.1691Z" fill="white"/>
<path d="M44.0984 54.6943C43.9112 54.5918 43.6899 54.4322 43.4741 54.1995C43.6746 54.2967 43.8694 54.467 44.0984 54.6943Z" fill="white"/>
<path d="M16.3606 71.4071C16.5172 71.4205 16.6765 71.506 16.7992 71.6658C16.6295 71.6531 16.4964 71.5662 16.3606 71.4071Z" fill="white"/>
<path d="M41.855 96.0314C41.9783 96.0704 42.1204 96.1701 42.2621 96.3423C42.1324 96.3072 42.0031 96.1996 41.855 96.0314Z" fill="white"/>
<path d="M6.05823 60.8749C6.12 60.9085 6.19302 61.0083 6.26904 61.1742C6.20452 61.1406 6.137 61.0409 6.05823 60.8749Z" fill="white"/>
<path d="M6.85828 62.0818C6.91482 62.1177 6.99407 62.2164 7.0722 62.3793C7.00771 62.3438 6.94434 62.2443 6.85828 62.0818Z" fill="white"/>
<path d="M35.3862 89.7825C35.4958 89.7393 35.625 89.7588 35.7692 89.8508C35.658 89.8973 35.532 89.8713 35.3862 89.7825Z" fill="white"/>
<path d="M8.69202 64.0993C8.74399 64.079 8.80981 64.1131 8.88449 64.2048C8.83085 64.2262 8.76836 64.1899 8.69202 64.0993Z" fill="white"/>
<path d="M13.1379 68.1437C13.1961 68.1195 13.2677 68.1492 13.3382 68.2414C13.2752 68.2685 13.2132 68.2331 13.1379 68.1437Z" fill="white"/>
<path d="M12.9365 67.9407C12.9925 67.9175 13.0621 67.9483 13.1342 68.0403C13.0746 68.066 13.0124 68.0303 12.9365 67.9407Z" fill="white"/>
<path d="M12.6958 67.7248C12.7361 67.7103 12.8158 67.7442 12.9181 67.8388C12.8721 67.8574 12.8037 67.8153 12.6958 67.7248Z" fill="white"/>
<path d="M9.70544 65.1313C9.7685 65.0817 9.84872 65.0974 9.95272 65.1762C9.89187 65.2251 9.80724 65.2108 9.70544 65.1313Z" fill="white"/>
<path d="M9.4978 64.9121C9.55623 64.8877 9.62746 64.9172 9.69709 65.0091C9.63386 65.0363 9.57223 65.0011 9.4978 64.9121Z" fill="white"/>
<path d="M9.2948 64.7102C9.35396 64.685 9.42488 64.7149 9.49586 64.807C9.4328 64.8345 9.36968 64.7999 9.2948 64.7102Z" fill="white"/>
<path d="M9.09509 64.5054C9.14809 64.484 9.21527 64.5166 9.28949 64.6083C9.23411 64.6314 9.1717 64.5954 9.09509 64.5054Z" fill="white"/>
<path d="M8.89209 64.3042C8.94843 64.2809 9.01753 64.3122 9.09016 64.4042C9.03074 64.4295 8.9678 64.3942 8.89209 64.3042Z" fill="white"/>
<path d="M13.3395 68.3473C13.3986 68.322 13.4708 68.3506 13.541 68.4427C13.4768 68.4711 13.4146 68.4362 13.3395 68.3473Z" fill="white"/>
<path d="M8.49219 63.8938C8.53662 63.8786 8.59683 63.9173 8.67619 64.0075C8.63288 64.0219 8.57043 63.9848 8.49219 63.8938Z" fill="white"/>
<path d="M8.28809 63.694C8.33564 63.6761 8.39833 63.7126 8.47664 63.8031C8.42925 63.8208 8.36624 63.7846 8.28809 63.694Z" fill="white"/>
<path d="M8.08435 63.4946C8.13707 63.4732 8.20369 63.5063 8.27876 63.5975C8.22423 63.6202 8.16123 63.5846 8.08435 63.4946Z" fill="white"/>
<path d="M7.8822 63.2919C7.93376 63.2716 7.9993 63.3058 8.07499 63.3971C8.02215 63.4184 7.95917 63.3824 7.8822 63.2919Z" fill="white"/>
<path d="M7.67993 63.0914C7.73192 63.0699 7.79846 63.1024 7.87382 63.1936C7.81991 63.2166 7.75719 63.181 7.67993 63.0914Z" fill="white"/>
<path d="M7.47681 62.8905C7.53225 62.8672 7.60142 62.8983 7.67451 62.99C7.6158 63.0153 7.55316 62.98 7.47681 62.8905Z" fill="white"/>
<path d="M7.27478 62.6876C7.33028 62.6649 7.39908 62.6967 7.47196 62.7888C7.41338 62.8133 7.35073 62.7777 7.27478 62.6876Z" fill="white"/>
<path d="M7.07361 62.4846C7.12694 62.4631 7.19433 62.4957 7.26836 62.5874C7.21256 62.6106 7.15012 62.5747 7.07361 62.4846Z" fill="white"/>
<path d="M13.5415 68.5494C13.6015 68.5243 13.6745 68.5529 13.7434 68.6454C13.6777 68.6739 13.6161 68.6385 13.5415 68.5494Z" fill="white"/>
<path d="M13.7415 68.7541C13.8063 68.7265 13.8829 68.753 13.949 68.8458C13.8768 68.8775 13.815 68.8428 13.7415 68.7541Z" fill="white"/>
<path d="M13.9434 68.9579C14.0079 68.9295 14.085 68.9545 14.1514 69.0469C14.0791 69.08 14.0175 69.0457 13.9434 68.9579Z" fill="white"/>
<path d="M14.1456 69.16C14.2098 69.1315 14.2866 69.1566 14.3533 69.2489C14.2816 69.282 14.2199 69.2477 14.1456 69.16Z" fill="white"/>
<path d="M14.3477 69.3617C14.4135 69.3333 14.4917 69.3582 14.5569 69.4507C14.4826 69.4838 14.4214 69.4494 14.3477 69.3617Z" fill="white"/>
<path d="M14.5496 69.5655C14.6167 69.5354 14.696 69.5586 14.7606 69.6509C14.6844 69.6863 14.6231 69.6526 14.5496 69.5655Z" fill="white"/>
<path d="M14.7526 69.7667C14.818 69.7377 14.8963 69.7617 14.9616 69.8539C14.8876 69.888 14.8265 69.8538 14.7526 69.7667Z" fill="white"/>
<path d="M14.9545 69.9688C15.0193 69.9396 15.0967 69.9639 15.1628 70.0562C15.09 70.0902 15.0285 70.0562 14.9545 69.9688Z" fill="white"/>
<path d="M15.1564 70.1702C15.222 70.1415 15.3001 70.1662 15.3655 70.2587C15.2915 70.2921 15.2301 70.2578 15.1564 70.1702Z" fill="white"/>
<path d="M15.3584 70.3732C15.4249 70.3437 15.5036 70.3674 15.5685 70.4598C15.4933 70.4944 15.432 70.4604 15.3584 70.3732Z" fill="white"/>
<path d="M15.5605 70.5753C15.6271 70.5459 15.706 70.5696 15.7706 70.662C15.6952 70.6966 15.634 70.6625 15.5605 70.5753Z" fill="white"/>
<path d="M15.7623 70.7781C15.8299 70.7479 15.9093 70.7711 15.9737 70.8634C15.8972 70.8988 15.8357 70.8652 15.7623 70.7781Z" fill="white"/>
<path d="M15.9652 70.9792C16.0329 70.9497 16.1131 70.9732 16.1769 71.0655C16.0995 71.1003 16.0386 71.0662 15.9652 70.9792Z" fill="white"/>
<path d="M16.1676 71.1818C16.2361 71.1516 16.3172 71.174 16.3801 71.2665C16.3014 71.3025 16.2407 71.2685 16.1676 71.1818Z" fill="white"/>
<path d="M27.2784 81.869C27.3258 81.8512 27.3964 81.8876 27.4818 81.9823C27.4317 82.0015 27.3667 81.9623 27.2784 81.869Z" fill="white"/>
<path d="M192.025 22.6245C192.043 22.6731 192.007 22.7356 191.916 22.8132C191.898 22.7649 191.934 22.7017 192.025 22.6245Z" fill="white"/>
<path d="M40.8479 51.4577C40.7952 51.479 40.7294 51.4455 40.6543 51.3544C40.7082 51.3323 40.7715 51.3676 40.8479 51.4577Z" fill="white"/>
<path d="M40.645 51.2573C40.5959 51.2762 40.533 51.2402 40.4554 51.1497C40.5043 51.1309 40.5678 51.1666 40.645 51.2573Z" fill="white"/>
<path d="M40.4427 51.0555C40.3937 51.0742 40.331 51.0377 40.2529 50.9469C40.3014 50.9286 40.3652 50.9644 40.4427 51.0555Z" fill="white"/>
<path d="M40.2363 50.8578C40.1992 50.8639 40.1457 50.8141 40.0623 50.7163C40.0949 50.7128 40.1573 50.7574 40.2363 50.8578Z" fill="white"/>
<path d="M191.425 23.2348C191.432 23.2712 191.385 23.324 191.293 23.4076C191.289 23.3761 191.33 23.3136 191.425 23.2348Z" fill="white"/>
<path d="M191.623 23.0295C191.639 23.0741 191.599 23.134 191.509 23.2141C191.495 23.1712 191.532 23.1079 191.623 23.0295Z" fill="white"/>
<path d="M191.827 22.8292C191.84 22.8706 191.798 22.9276 191.709 23.0092C191.699 22.9708 191.736 22.9079 191.827 22.8292Z" fill="white"/>
<path d="M41.0499 51.6607C40.9973 51.6815 40.9319 51.6473 40.8568 51.5559C40.9104 51.5345 40.9738 51.57 41.0499 51.6607Z" fill="white"/>
<path d="M192.227 22.4223C192.246 22.4722 192.211 22.5359 192.12 22.6121C192.101 22.5618 192.137 22.499 192.227 22.4223Z" fill="white"/>
<path d="M192.429 22.2202C192.447 22.2685 192.412 22.3315 192.322 22.4089C192.303 22.3604 192.339 22.2977 192.429 22.2202Z" fill="white"/>
<path d="M192.628 22.0165C192.651 22.0715 192.62 22.1396 192.529 22.2128C192.504 22.1551 192.539 22.0924 192.628 22.0165Z" fill="white"/>
<path d="M192.829 21.8145C192.853 21.8697 192.822 21.938 192.731 22.0107C192.705 21.9526 192.74 21.8902 192.829 21.8145Z" fill="white"/>
<path d="M193.031 21.6127C193.055 21.6687 193.025 21.7382 192.934 21.8099C192.908 21.7501 192.942 21.6881 193.031 21.6127Z" fill="white"/>
<path d="M193.232 21.4099C193.258 21.4685 193.229 21.5394 193.137 21.6096C193.109 21.5466 193.144 21.4844 193.232 21.4099Z" fill="white"/>
<path d="M27.4951 82.0815C27.5492 82.0596 27.617 82.0917 27.6903 82.1835C27.6335 82.2072 27.5712 82.1714 27.4951 82.0815Z" fill="white"/>
<path d="M41.2507 51.8644C41.2025 51.8825 41.1399 51.8462 41.0621 51.7557C41.11 51.7376 41.1731 51.7737 41.2507 51.8644Z" fill="white"/>
<path d="M41.4547 52.0644C41.4024 52.0853 41.3375 52.0507 41.2616 51.9598C41.3144 51.9386 41.3783 51.9738 41.4547 52.0644Z" fill="white"/>
<path d="M41.6558 52.2678C41.6057 52.2871 41.5425 52.2512 41.4657 52.1603C41.5156 52.1411 41.5791 52.1769 41.6558 52.2678Z" fill="white"/>
<path d="M41.8573 52.4705C41.8091 52.4888 41.7468 52.4521 41.6688 52.3617C41.7165 52.3439 41.7799 52.3798 41.8573 52.4705Z" fill="white"/>
<path d="M42.0607 52.6705C42.0087 52.6914 41.9439 52.6571 41.868 52.5662C41.9206 52.5449 41.9842 52.5801 42.0607 52.6705Z" fill="white"/>
<path d="M42.2621 52.8735C42.2122 52.8929 42.1485 52.8578 42.0718 52.7671C42.1219 52.7473 42.1851 52.7831 42.2621 52.8735Z" fill="white"/>
<path d="M42.4648 53.0731C42.4103 53.0961 42.3427 53.0646 42.2692 52.9735C42.3261 52.9488 42.389 52.9837 42.4648 53.0731Z" fill="white"/>
<path d="M42.666 53.2787C42.6154 53.2979 42.5509 53.2627 42.4752 53.1714C42.5267 53.1517 42.5894 53.188 42.666 53.2787Z" fill="white"/>
<path d="M42.8677 53.4815C42.8197 53.4993 42.7576 53.4623 42.6797 53.3718C42.7272 53.3544 42.7904 53.3905 42.8677 53.4815Z" fill="white"/>
<path d="M43.0703 53.6819C43.0213 53.701 42.9583 53.6654 42.8809 53.5749C42.9298 53.5557 42.993 53.5915 43.0703 53.6819Z" fill="white"/>
<path d="M43.2725 53.8837C43.2213 53.9039 43.1563 53.8697 43.0808 53.7788C43.1331 53.7578 43.1959 53.7936 43.2725 53.8837Z" fill="white"/>
<path d="M43.4747 54.0849C43.4238 54.1055 43.3583 54.0722 43.2827 53.9815C43.3351 53.9598 43.3976 53.9955 43.4747 54.0849Z" fill="white"/>
<path d="M93.4289 57.2133C93.4289 57.2133 93.4199 57.1141 93.4175 57.0643C93.4507 57.0029 93.4864 56.9911 93.576 56.9951C93.63 57.0108 93.669 57.0903 93.6198 57.1396C93.5234 57.1971 93.4761 57.2052 93.4289 57.2133Z" fill="white"/>
<path d="M38.0043 92.1903C38.0703 92.1621 38.1485 92.1873 38.2136 92.2801C38.1392 92.313 38.0778 92.2784 38.0043 92.1903Z" fill="white"/>
<path d="M39.6221 93.8062C39.6852 93.7787 39.7611 93.8047 39.8286 93.8972C39.7583 93.929 39.6966 93.8944 39.6221 93.8062Z" fill="white"/>
<path d="M39.4204 93.6046C39.4827 93.5769 39.5583 93.6026 39.6261 93.6949C39.5568 93.727 39.4953 93.6924 39.4204 93.6046Z" fill="white"/>
<path d="M39.2179 93.4031C39.2825 93.3746 39.36 93.3993 39.4262 93.4918C39.3535 93.5251 39.2922 93.4907 39.2179 93.4031Z" fill="white"/>
<path d="M39.0156 93.2013C39.08 93.1729 39.1573 93.1976 39.2236 93.2899C39.1513 93.3231 39.09 93.2888 39.0156 93.2013Z" fill="white"/>
<path d="M38.8127 93.0004C38.8788 92.9709 38.9573 92.9948 39.0226 93.0871C38.948 93.1215 38.8866 93.0876 38.8127 93.0004Z" fill="white"/>
<path d="M38.6105 92.7978C38.6768 92.7686 38.7553 92.7929 38.8203 92.8853C38.7454 92.9194 38.684 92.8853 38.6105 92.7978Z" fill="white"/>
<path d="M38.4087 92.5959C38.4731 92.567 38.5503 92.5912 38.6166 92.6834C38.5443 92.7173 38.4829 92.6832 38.4087 92.5959Z" fill="white"/>
<path d="M38.2064 92.3938C38.2721 92.3648 38.3505 92.3889 38.4158 92.4813C38.3416 92.5154 38.2804 92.4812 38.2064 92.3938Z" fill="white"/>
<path d="M39.8243 94.0086C39.8876 93.9806 39.9638 94.0062 40.0314 94.0984C39.961 94.1307 39.8992 94.0964 39.8243 94.0086Z" fill="white"/>
<path d="M37.8031 91.9874C37.8645 91.9607 37.9394 91.9873 38.0077 92.0795C37.9395 92.1104 37.8781 92.0755 37.8031 91.9874Z" fill="white"/>
<path d="M37.5996 91.7867C37.6638 91.7585 37.7405 91.7841 37.8076 91.8764C37.736 91.9089 37.674 91.8747 37.5996 91.7867Z" fill="white"/>
<path d="M37.3973 91.5844C37.4605 91.5568 37.536 91.583 37.6037 91.6754C37.5338 91.7071 37.4718 91.6727 37.3973 91.5844Z" fill="white"/>
<path d="M37.1951 91.3818C37.2574 91.3548 37.3322 91.3818 37.4006 91.4742C37.332 91.505 37.2698 91.4705 37.1951 91.3818Z" fill="white"/>
<path d="M36.9926 91.1805C37.0546 91.153 37.1289 91.1798 37.1978 91.2721C37.1299 91.3033 37.0674 91.2691 36.9926 91.1805Z" fill="white"/>
<path d="M36.791 90.9776C36.8527 90.9508 36.927 90.978 36.9956 91.0704C36.9279 91.101 36.8658 91.0663 36.791 90.9776Z" fill="white"/>
<path d="M36.5889 90.7747C36.6507 90.7482 36.7249 90.7761 36.7937 90.8686C36.7259 90.8985 36.6636 90.8637 36.5889 90.7747Z" fill="white"/>
<path d="M36.3872 90.5722C36.4474 90.5463 36.5201 90.5747 36.5901 90.667C36.5248 90.6962 36.4623 90.6613 36.3872 90.5722Z" fill="white"/>
<path d="M40.0281 94.2091C40.0875 94.1828 40.1608 94.2099 40.2306 94.3017C40.1655 94.3318 40.1037 94.2971 40.0281 94.2091Z" fill="white"/>
<path d="M40.2295 94.4104C40.2922 94.384 40.3674 94.4113 40.4349 94.504C40.3655 94.5343 40.3037 94.4993 40.2295 94.4104Z" fill="white"/>
<path d="M40.4316 94.6141C40.4925 94.5869 40.5666 94.6133 40.6358 94.7053C40.5689 94.7365 40.5069 94.7021 40.4316 94.6141Z" fill="white"/>
<path d="M40.6343 94.8146C40.6937 94.7887 40.7664 94.8165 40.8367 94.9085C40.772 94.9379 40.7098 94.9031 40.6343 94.8146Z" fill="white"/>
<path d="M40.8367 95.0158C40.8962 94.9904 40.9689 95.0189 41.0388 95.1111C40.9739 95.1398 40.9118 95.1047 40.8367 95.0158Z" fill="white"/>
<path d="M41.0385 95.219C41.0981 95.1924 41.1706 95.2201 41.2414 95.3118C41.1769 95.3416 41.1141 95.3074 41.0385 95.219Z" fill="white"/>
<path d="M41.2432 95.4182C41.2992 95.3941 41.3697 95.4235 41.4419 95.5149C41.3816 95.5419 41.3196 95.5068 41.2432 95.4182Z" fill="white"/>
<path d="M41.446 95.6185C41.5023 95.5954 41.5729 95.6258 41.6443 95.7179C41.5836 95.7437 41.522 95.7078 41.446 95.6185Z" fill="white"/>
<path d="M41.6473 95.8218C41.7037 95.7978 41.774 95.8276 41.8459 95.9195C41.7854 95.9462 41.7233 95.9109 41.6473 95.8218Z" fill="white"/>
<path d="M30.7343 85.3353C30.7999 85.2848 30.8851 85.2974 30.9866 85.3815C30.9199 85.4348 30.8368 85.4166 30.7343 85.3353Z" fill="white"/>
<path d="M27.6963 82.2849C27.7528 82.2614 27.8225 82.2921 27.8948 82.3839C27.8347 82.4097 27.7721 82.3745 27.6963 82.2849Z" fill="white"/>
<path d="M27.8998 82.4855C27.9536 82.4638 28.0222 82.4955 28.0954 82.5871C28.0382 82.611 27.9764 82.575 27.8998 82.4855Z" fill="white"/>
<path d="M28.1013 82.6889C28.1586 82.6651 28.2296 82.6949 28.3004 82.7869C28.2386 82.8136 28.1768 82.7781 28.1013 82.6889Z" fill="white"/>
<path d="M28.3033 82.8917C28.3605 82.8679 28.4317 82.8974 28.5021 82.9895C28.4401 83.0164 28.3787 82.9807 28.3033 82.8917Z" fill="white"/>
<path d="M28.5028 83.096C28.563 83.0703 28.6353 83.0991 28.705 83.1916C28.6399 83.2204 28.5774 83.1855 28.5028 83.096Z" fill="white"/>
<path d="M28.7046 83.299C28.7644 83.2728 28.8369 83.3009 28.9075 83.3927C28.8429 83.422 28.7801 83.3877 28.7046 83.299Z" fill="white"/>
<path d="M28.9088 83.4992C28.9663 83.4744 29.0377 83.5032 29.1092 83.5948C29.0471 83.6227 28.985 83.5878 28.9088 83.4992Z" fill="white"/>
<path d="M29.1123 83.6994C29.1688 83.6759 29.2397 83.7057 29.3108 83.7978C29.2496 83.8242 29.1882 83.7884 29.1123 83.6994Z" fill="white"/>
<path d="M29.313 83.9028C29.3714 83.8781 29.4431 83.9072 29.5136 83.9994C29.4504 84.0272 29.3883 83.992 29.313 83.9028Z" fill="white"/>
<path d="M29.5149 84.1053C29.5737 84.0804 29.646 84.1091 29.7162 84.2012C29.6522 84.2293 29.5903 84.1942 29.5149 84.1053Z" fill="white"/>
<path d="M29.717 84.3078C29.7773 84.282 29.8509 84.3099 29.9201 84.402C29.8539 84.4313 29.7922 84.3963 29.717 84.3078Z" fill="white"/>
<path d="M29.9203 84.5093C29.9792 84.4845 30.0523 84.5126 30.1214 84.6048C30.0564 84.6334 29.9954 84.5978 29.9203 84.5093Z" fill="white"/>
<path d="M30.1204 84.7137C30.1829 84.6864 30.258 84.7128 30.3256 84.8053C30.2564 84.8367 30.1947 84.802 30.1204 84.7137Z" fill="white"/>
<path d="M30.3225 84.9159C30.3847 84.8889 30.4601 84.9154 30.5279 85.0076C30.4589 85.0387 30.3973 85.004 30.3225 84.9159Z" fill="white"/>
<path d="M30.525 85.1171C30.5873 85.0911 30.6631 85.1178 30.7297 85.2105C30.6599 85.2409 30.5993 85.2054 30.525 85.1171Z" fill="white"/>
<path d="M31.087 85.5027C31.1296 85.4865 31.2142 85.5181 31.3184 85.6144C31.2684 85.6363 31.1987 85.5935 31.087 85.5027Z" fill="white"/>
<path d="M31.3345 85.7212C31.393 85.6965 31.4646 85.7259 31.5351 85.8181C31.4719 85.8458 31.4097 85.8105 31.3345 85.7212Z" fill="white"/>
<path d="M31.5355 85.9245C31.5956 85.8989 31.668 85.9277 31.7379 86.0201C31.6728 86.0488 31.6104 86.0138 31.5355 85.9245Z" fill="white"/>
<path d="M31.7374 86.1272C31.7971 86.1014 31.8697 86.1298 31.9399 86.2219C31.8752 86.2509 31.8127 86.2162 31.7374 86.1272Z" fill="white"/>
<path d="M31.9397 86.3291C31.9993 86.3034 32.0718 86.3318 32.1421 86.424C32.0774 86.4529 32.015 86.4181 31.9397 86.3291Z" fill="white"/>
<path d="M32.1416 86.5308C32.204 86.505 32.2791 86.5331 32.3466 86.626C32.2775 86.6554 32.2159 86.62 32.1416 86.5308Z" fill="white"/>
<path d="M32.3431 86.736C32.4051 86.7081 32.4799 86.7339 32.5484 86.8261C32.4801 86.8582 32.418 86.824 32.3431 86.736Z" fill="white"/>
<path d="M32.5453 86.937C32.607 86.9099 32.6813 86.9369 32.7503 87.0291C32.6826 87.0599 32.6203 87.0255 32.5453 86.937Z" fill="white"/>
<path d="M32.7483 87.1378C32.8087 87.1119 32.8824 87.1397 32.9513 87.2321C32.8848 87.2617 32.8232 87.2266 32.7483 87.1378Z" fill="white"/>
<path d="M34.3162 88.5333C34.3602 88.5156 34.4479 88.5453 34.5539 88.6424C34.5014 88.6668 34.4307 88.6238 34.3162 88.5333Z" fill="white"/>
<path d="M34.5691 88.7525C34.6278 88.7272 34.6992 88.7562 34.7703 88.8481C34.7073 88.8762 34.6445 88.8415 34.5691 88.7525Z" fill="white"/>
<path d="M34.7721 88.9535C34.8291 88.9293 34.8995 88.9591 34.9714 89.0509C34.9105 89.0778 34.848 89.0427 34.7721 88.9535Z" fill="white"/>
<path d="M35.7815 89.9649C35.8402 89.9397 35.9116 89.9691 35.9827 90.0612C35.9197 90.0892 35.8569 90.0543 35.7815 89.9649Z" fill="white"/>
<path d="M35.9835 90.167C36.043 90.1417 36.115 90.1709 36.1855 90.2632C36.1213 90.2914 36.0587 90.2564 35.9835 90.167Z" fill="white"/>
<path d="M36.1855 90.3695C36.2452 90.344 36.3176 90.3728 36.3878 90.4651C36.3232 90.4938 36.2608 90.4587 36.1855 90.3695Z" fill="white"/>
<path d="M136.291 111.385C136.427 111.322 136.58 111.321 136.809 111.321C136.692 111.364 136.499 111.405 136.291 111.385Z" fill="white"/>
<path d="M144.087 57.1734C144.184 57.2252 144.224 57.2773 144.311 57.3547C144.351 58.1493 144.353 58.9137 144.353 59.678C144.356 69.3723 144.36 79.0665 144.361 88.7608C144.362 95.6159 144.364 102.471 144.338 109.326C144.337 109.71 144.089 110.092 143.885 110.498C143.782 110.055 143.723 109.59 143.724 109.125C143.726 103.925 143.737 98.724 143.757 93.3363C143.752 91.9328 143.735 90.7164 143.718 89.5001C143.721 88.7531 143.724 88.0061 143.741 87.0744C143.741 86.009 143.73 85.1282 143.718 84.2475C143.718 75.4855 143.718 66.7236 143.728 57.7966C143.749 57.4874 143.761 57.3433 143.773 57.1991C143.856 57.1922 143.94 57.1854 144.087 57.1734Z" fill="white"/>
<path d="M153.27 57.2297C154.13 57.1427 155.02 57.1323 156.006 57.1261C155.587 57.6838 154.225 57.7694 153.27 57.2297Z" fill="white"/>
<path d="M156.463 57.1314C156.511 57.0116 156.633 56.8926 156.819 56.7603C156.767 56.8754 156.652 57.0039 156.463 57.1314Z" fill="white"/>
<path d="M194.083 21.2176C194.096 21.178 194.137 21.1674 194.238 21.1759C194.236 21.2122 194.173 21.2294 194.083 21.2176Z" fill="white"/>
<path d="M82.1033 111.439C82.1414 111.394 82.1962 111.375 82.2526 111.367C82.2613 111.365 82.2774 111.412 82.29 111.436C82.2335 111.447 82.177 111.458 82.1033 111.439Z" fill="white"/>
<path d="M114.778 110.793C113.492 110.796 112.207 110.8 110.821 110.777C110.728 110.651 110.734 110.55 110.844 110.377C120.891 110.312 130.836 110.319 140.774 110.405C140.755 110.588 140.742 110.692 140.728 110.796C140.5 110.823 140.271 110.85 139.977 110.899C138.03 110.912 136.15 110.9 134.27 110.892C129.559 110.871 124.849 110.853 119.952 110.799C118.102 110.775 116.44 110.784 114.778 110.793Z" fill="white"/>
<path d="M142.204 110.544C142.191 110.608 142.17 110.669 142.13 110.773C141.85 110.829 141.583 110.838 141.215 110.782C141.034 110.586 140.954 110.455 140.963 110.319C141.436 110.391 141.82 110.468 142.204 110.544Z" fill="white"/>
<path d="M140.875 110.325C140.954 110.455 141.034 110.586 141.136 110.768C141.047 110.833 140.936 110.846 140.777 110.828C140.742 110.692 140.755 110.588 140.798 110.406C140.827 110.328 140.875 110.325 140.875 110.325Z" fill="white"/>
<path d="M140.963 110.319C140.875 110.325 140.827 110.328 140.804 110.327C130.836 110.319 120.891 110.312 110.846 110.302C110.629 109.645 110.42 108.993 110.412 108.338C110.378 105.186 110.382 102.032 110.402 98.8797C110.462 89.2573 110.525 79.6349 110.61 70.0127C110.642 66.382 110.756 62.7521 110.79 59.1214C110.799 58.1693 111.053 57.7424 112.12 57.7434C115.753 57.747 119.387 57.633 123.02 57.5938C125.599 57.5659 128.179 57.5863 130.758 57.5851C133.242 57.5839 135.728 57.5213 138.21 57.6042C139.74 57.6552 141.263 57.928 142.955 58.1201C142.955 58.5113 142.955 58.8978 142.955 59.2843C142.956 72.9523 142.953 86.6204 142.966 100.288C142.967 101.292 143.115 102.296 143.141 103.301C143.197 105.439 143.25 107.578 143.211 109.715C143.206 109.993 142.648 110.262 142.275 110.539C141.82 110.468 141.436 110.391 140.963 110.319Z" fill="white"/>
<path d="M109.421 57.3807C109.421 57.3807 109.5 57.3771 109.6 57.3767C109.739 57.3762 109.779 57.3763 109.818 57.3763C109.865 59.3884 109.956 61.4007 109.95 63.4127C109.923 73.6311 109.873 83.8495 109.825 94.0678C109.815 96.3197 109.781 98.5714 109.75 100.918C108.894 100.967 109.099 100.269 108.979 99.6106C109.051 97.5442 109.172 95.6426 109.178 93.7406C109.2 86.6282 109.161 79.5156 109.192 72.4032C109.213 67.531 109.314 62.6591 109.385 57.7192C109.401 57.5611 109.411 57.4709 109.421 57.3807Z" fill="white"/>
<path d="M119.984 57.0397C123.213 56.9894 126.512 56.976 129.901 56.9873C128.656 57.0497 127.321 57.1137 125.986 57.119C124.009 57.1268 122.033 57.0928 119.984 57.0397Z" fill="white"/>
<path d="M136.561 57.0263C138.373 56.978 140.257 56.9679 142.231 56.9776C140.425 57.0197 138.529 57.0421 136.561 57.0263Z" fill="white"/>
<path d="M131.11 57.056C132.651 56.9964 134.265 56.9713 135.969 56.9657C134.434 57.0204 132.808 57.0554 131.11 57.056Z" fill="white"/>
<path d="M143.68 89.5729C143.735 90.7164 143.752 91.9328 143.751 93.2416C143.703 92.1047 143.673 90.8752 143.68 89.5729Z" fill="white"/>
<path d="M115.124 57.046C116.064 56.9908 117.075 56.9742 118.178 56.978C117.244 57.0271 116.22 57.0559 115.124 57.046Z" fill="white"/>
<path d="M143.68 84.3195C143.73 85.1282 143.741 86.009 143.734 86.9814C143.691 86.1793 143.667 85.2854 143.68 84.3195Z" fill="white"/>
<path d="M110.659 57.1036C111.323 57.0595 112.079 57.0109 112.925 56.9828C112.26 57.0353 111.507 57.0673 110.659 57.1036Z" fill="white"/>
<path d="M143.72 57.1555C143.761 57.3433 143.749 57.4875 143.72 57.7018C143.533 57.5596 143.363 57.3473 143.176 57.0802C143.328 57.0542 143.497 57.0831 143.72 57.1555Z" fill="white"/>
<path d="M109.839 57.3523C109.779 57.3763 109.739 57.3762 109.639 57.3767C109.633 57.3372 109.687 57.2972 109.791 57.2626C109.841 57.268 109.86 57.3284 109.839 57.3523Z" fill="white"/>
<path d="M59.277 110.606C59.1009 110.667 58.9289 110.676 58.676 110.611C58.595 110.536 58.5865 110.437 58.5865 110.437C58.5311 107.075 58.4373 103.712 58.4284 100.349C58.41 93.4186 58.437 86.4878 58.4899 79.4233C58.5122 79.1338 58.4898 78.9781 58.4675 78.8224C58.4603 77.451 58.4531 76.0797 58.4951 74.5523C58.5183 73.9194 58.4923 73.4425 58.4662 72.9656C58.4677 67.9657 58.4692 62.9658 58.4811 57.8717C58.8262 57.7191 59.161 57.6607 59.5703 57.6767C59.5112 59.3392 59.3141 60.9252 59.2646 62.5159C59.2263 63.7439 59.4362 64.9783 59.4249 66.2088C59.4001 68.9206 59.311 71.6318 59.2372 74.343C59.1807 76.4223 59.0483 78.5013 59.0559 80.5801C59.0669 83.5881 59.2217 86.5957 59.2254 89.6035C59.2286 92.2544 59.0521 94.9056 59.0575 97.5564C59.0641 100.867 59.1614 104.177 59.2568 107.487C59.2716 108.002 59.4846 108.51 59.5823 108.922C59.5309 109.432 59.4868 109.87 59.4427 110.308C59.3889 110.391 59.335 110.473 59.277 110.606Z" fill="white"/>
<path d="M58.448 73.0495C58.4922 73.4425 58.5183 73.9194 58.5043 74.456C58.4527 74.0549 58.4413 73.5942 58.448 73.0495Z" fill="white"/>
<path d="M58.4508 78.8891C58.4898 78.9781 58.5121 79.1338 58.4997 79.327C58.4547 79.2283 58.4444 79.0921 58.4508 78.8891Z" fill="white"/>
<path d="M58.5374 110.471C58.5865 110.437 58.595 110.536 58.5934 110.585C58.5918 110.634 58.5191 110.69 58.4771 110.708C58.4527 110.653 58.4705 110.579 58.5374 110.471Z" fill="white"/>
<path d="M196.669 27.7045C196.688 27.683 196.705 27.7792 196.699 27.8276C196.641 27.8352 196.626 27.7852 196.669 27.7045Z" fill="white"/>
<path d="M59.5376 110.309C59.4868 109.87 59.5309 109.432 59.5822 108.922C59.4845 108.51 59.2716 108.002 59.2568 107.487C59.1614 104.177 59.0641 100.867 59.0574 97.5564C59.0521 94.9056 59.2286 92.2544 59.2254 89.6035C59.2217 86.5957 59.0668 83.5881 59.0559 80.5801C59.0483 78.5013 59.1806 76.4223 59.2372 74.343C59.3109 71.6318 59.4001 68.9206 59.4249 66.2088C59.4362 64.9783 59.2263 63.7439 59.2645 62.5159C59.3141 60.9252 59.5112 59.3391 59.6431 57.6655C68.1436 57.7117 76.6458 57.8434 85.3273 57.9774C86.1933 57.8569 86.8801 57.7341 87.5669 57.6114C88.1682 57.6117 88.7695 57.6121 89.491 57.6793C90.0078 57.705 90.4042 57.6638 90.8007 57.6225C90.9043 57.6523 91.0078 57.6821 91.1662 57.8132C91.5448 57.8718 91.8685 57.8289 92.1922 57.7861C92.3215 58.2008 92.4508 58.6155 92.534 59.1832C92.5252 60.5702 92.5859 61.8041 92.5947 63.0382C92.6122 65.4807 92.6011 67.9233 92.6015 70.3658C92.6024 75.8127 92.5997 81.2595 92.611 86.7063C92.6119 87.0983 92.7146 87.4901 92.7699 87.882C92.7737 88.5615 92.7775 89.2411 92.7393 90.0648C92.6755 90.3799 92.6538 90.5509 92.632 90.7219C92.694 94.7358 92.7444 98.75 92.8237 102.764C92.8547 104.332 92.9631 105.9 93.0108 107.468C93.032 108.166 92.99 108.865 92.981 109.635C92.5109 110.265 91.8919 110.351 91.2009 110.315C90.4294 110.274 89.654 110.319 88.8806 110.306C85.093 110.244 81.3055 110.13 77.5179 110.124C74.4636 110.119 71.4093 110.255 68.3545 110.294C67.8713 110.3 67.3857 110.124 66.9011 110.032C66.7058 109.995 66.4822 109.879 66.3191 109.936C64.123 110.698 61.8569 110.129 59.5376 110.309Z" fill="white"/>
<path d="M92.8266 87.8189C92.7146 87.4901 92.6119 87.0983 92.6111 86.7063C92.5997 81.2595 92.6024 75.8127 92.6015 70.3658C92.6011 67.9233 92.6122 65.4807 92.5948 63.0382C92.586 61.8041 92.5253 60.5703 92.5329 59.2682C92.6723 59.3198 92.7669 59.4395 92.9059 59.6156C92.9819 59.4923 93.0505 59.3807 93.188 59.3213C93.2916 65.048 93.3344 70.7225 93.3577 76.3971C93.3687 79.0812 93.3426 81.7655 93.3333 84.4496C93.265 84.0054 93.1966 83.5611 93.1283 83.1169C93.0466 83.1187 92.9649 83.1205 92.8832 83.1223C92.8832 84.6668 92.8832 86.2113 92.8266 87.8189Z" fill="white"/>
<path d="M93.3458 84.5279C93.3426 81.7655 93.3688 79.0812 93.3577 76.3971C93.3344 70.7225 93.2916 65.048 93.2258 59.2826C93.2051 59.0406 93.2156 58.8893 93.2441 58.5852C93.2559 58.2179 93.2496 58.0035 93.2434 57.7892C93.2799 57.6437 93.3164 57.4982 93.3811 57.2836C93.4094 57.2145 93.4184 57.2118 93.4236 57.2126C93.4761 57.2052 93.5234 57.1971 93.6425 57.1776C93.7144 57.1663 93.7402 57.1576 93.7691 57.2374C93.8082 57.4714 93.8185 57.6256 93.8243 57.8586C93.9142 58.3511 94.091 58.7651 94.0901 59.1787C94.0821 62.8426 94.0021 66.5068 94.0219 70.1704C94.0502 75.3992 94.1447 80.6276 94.211 85.8561C94.211 85.8561 94.1117 85.8686 94.0622 85.8763C93.9417 85.6155 93.8842 85.3421 93.7884 85.0829C93.7691 85.0306 93.6043 85.0321 93.465 85.0426C93.4016 84.9197 93.3799 84.7629 93.3458 84.5279Z" fill="white"/>
<path d="M87.4738 57.6027C86.8802 57.7341 86.1934 57.8569 85.4147 57.9761C86.0087 57.8463 86.6947 57.7201 87.4738 57.6027Z" fill="white"/>
<path d="M90.712 57.6109C90.4043 57.6638 90.0078 57.705 89.5811 57.6832C89.9083 57.6132 90.2658 57.6062 90.712 57.6109Z" fill="white"/>
<path d="M92.1452 57.7441C91.8686 57.8289 91.5448 57.8718 91.2048 57.8521C91.4918 57.7604 91.7949 57.7313 92.1452 57.7441Z" fill="white"/>
<path d="M93.1936 57.8321C93.2496 58.0035 93.2559 58.2179 93.2381 58.5096C93.1907 58.3496 93.1673 58.1124 93.1936 57.8321Z" fill="white"/>
<path d="M62.5363 57.0141C62.5325 56.9941 62.5825 56.9724 62.606 56.9847C62.6296 56.997 62.5992 57.0404 62.5992 57.0404C62.5992 57.0404 62.5402 57.034 62.5363 57.0141Z" fill="white"/>
<path d="M94.2628 85.9037C94.1447 80.6276 94.0502 75.3992 94.0219 70.1704C94.0021 66.5068 94.0821 62.8426 94.0901 59.1787C94.091 58.7651 93.9142 58.3511 93.9058 57.8415C94.4551 57.6891 94.9191 57.5787 95.3817 57.5844C100.048 57.6411 104.713 57.7168 109.379 57.7871C109.314 62.6591 109.213 67.531 109.192 72.4032C109.161 79.5156 109.2 86.6282 109.178 93.7406C109.172 95.6426 109.051 97.5442 108.976 99.5319C107.552 98.5031 106.103 97.424 104.722 96.2645C102.887 94.7237 101.078 93.1488 99.3077 91.5345C97.8899 90.2418 96.5164 88.8966 95.1866 87.5138C94.7867 87.0979 94.5994 86.4778 94.2628 85.9037Z" fill="white"/>
<path d="M92.689 90.7022C92.6538 90.5509 92.6755 90.3799 92.7368 90.1574C92.7662 90.2981 92.7561 90.4903 92.689 90.7022Z" fill="white"/>
<path d="M93.3268 91.6055C93.3734 91.8162 93.3837 92.0774 93.377 92.4148C93.3368 92.2127 93.3137 91.9343 93.3268 91.6055Z" fill="white"/>
<path d="M109.385 57.7192C104.713 57.7168 100.048 57.6411 95.3817 57.5844C94.919 57.5787 94.455 57.6891 93.9102 57.7628C93.8185 57.6256 93.8082 57.4714 93.7821 57.241C98.27 57.1587 102.774 57.1472 107.278 57.1522C107.946 57.1529 108.614 57.2312 109.351 57.3272C109.411 57.4709 109.401 57.5611 109.385 57.7192Z" fill="white"/>
<path d="M114.857 110.831C116.44 110.784 118.103 110.775 119.862 110.788C118.285 110.831 116.611 110.85 114.857 110.831Z" fill="white"/>
<path d="M78.7306 148.879L78.7306 148.879C78.6215 148.846 78.4967 148.808 78.36 148.766C77.6175 148.539 76.524 148.204 75.6968 147.967C72.0088 146.893 62.2111 143.908 60.1433 143.236C60.143 143.236 60.1428 143.236 60.1426 143.236L59.2649 142.948V125.441C59.2649 120.528 59.2494 116.054 59.226 112.804C59.2144 111.179 59.2007 109.858 59.1861 108.941C59.1788 108.483 59.1713 108.123 59.1635 107.876C59.1621 107.834 59.1608 107.795 59.1594 107.758C59.1977 107.757 59.2401 107.756 59.287 107.755C59.7274 107.747 60.4846 107.756 61.8041 107.778C63.5093 107.806 71.558 107.835 79.704 107.835C79.7041 107.835 79.7042 107.835 79.7043 107.835L94.0339 107.842L94.0899 112.257L94.0899 112.258C94.1313 114.958 94.1935 120.516 94.235 124.615C94.235 124.615 94.235 124.615 94.235 124.615L94.735 124.61C94.7764 128.916 94.9008 132.441 95.0252 132.957C95.2325 133.802 95.9167 135.149 96.9326 136.683L78.7306 148.879ZM78.7306 148.879L78.7361 148.881C80.1411 149.327 82.1949 149.948 83.9737 150.471C85.7693 150.999 87.2372 151.415 87.5092 151.467L78.7306 148.879ZM58.8415 107.783C58.8417 107.783 58.8447 107.782 58.8501 107.781C58.844 107.782 58.8413 107.783 58.8415 107.783Z" fill="white" stroke="white"/>
<path d="M111.229 108.217C111.226 108.216 111.224 108.215 111.222 108.214L100.506 137.585L100.938 137.836C100.938 137.836 100.938 137.837 100.938 137.837C100.337 138.869 99.2927 140.76 98.6309 142.024C97.9621 143.301 96.4877 145.979 95.358 147.977C94.6714 149.191 93.9537 150.449 93.4128 151.398C93.0605 152.015 92.7832 152.502 92.6384 152.759C92.397 153.195 92.2688 153.465 92.2125 153.643C92.1906 153.712 92.1846 153.751 92.1834 153.77C92.2086 153.813 92.2316 153.846 92.3278 153.93C92.4655 154.05 92.7202 154.243 93.2369 154.604C94.1961 155.276 95.9938 156.489 99.4556 158.823C99.6958 158.985 99.9439 159.153 100.2 159.326C100.926 159.813 101.618 160.279 102.145 160.639C102.646 160.98 103.03 161.245 103.134 161.328C103.552 161.652 107.87 164.565 109.505 165.622L109.505 165.622L109.508 165.625C110.337 166.171 112.435 167.574 114.17 168.763C114.806 169.193 115.481 169.651 116.118 170.082C117.219 170.828 118.206 171.497 118.678 171.81C119.099 172.083 119.729 172.505 120.379 172.94C120.908 173.294 121.45 173.657 121.903 173.956L121.907 173.958C123.777 175.209 125.184 176.13 127.739 177.727L127.739 177.727L127.746 177.732C128.223 178.041 128.763 178.389 129.372 178.781C130.609 179.578 132.131 180.558 133.995 181.774L133.995 181.774L134 181.778C134.882 182.368 136.309 183.289 137.172 183.832L137.172 183.832L137.178 183.835C137.872 184.284 138.321 184.583 138.58 184.854C138.725 185.005 138.832 185.167 138.893 185.361C138.952 185.543 138.958 185.721 138.958 185.872C138.958 186.732 138.512 187.581 137.794 188.365C137.07 189.154 136.028 189.923 134.727 190.633L134.726 190.634C134.394 190.814 134.146 190.962 133.971 191.085C134.305 191.2 134.759 191.424 135.069 191.614C135.339 191.775 135.399 191.788 135.434 191.791C135.482 191.794 135.563 191.783 135.897 191.668C136.235 191.551 136.781 191.275 137.09 191.066C137.474 190.808 138.416 190.331 139.196 190.012C139.964 189.697 140.798 189.314 141.063 189.155L141.072 189.15L141.081 189.145C141.08 189.145 141.086 189.142 141.1 189.133C141.114 189.124 141.132 189.112 141.155 189.096C141.201 189.065 141.26 189.022 141.334 188.969C141.48 188.862 141.672 188.716 141.906 188.536C142.373 188.176 142.996 187.685 143.722 187.107C145.173 185.952 147.029 184.452 148.86 182.958C150.691 181.465 152.494 179.98 153.839 178.856C154.512 178.293 155.069 177.822 155.456 177.486C155.535 177.417 155.607 177.355 155.671 177.298C155.458 177.111 155.16 176.854 154.783 176.533C153.955 175.827 152.756 174.82 151.277 173.584C148.317 171.112 144.237 167.731 139.753 164.036C135.268 160.34 131.186 156.962 128.224 154.497C126.744 153.265 125.543 152.26 124.712 151.558C124.297 151.207 123.972 150.931 123.751 150.739C123.641 150.643 123.554 150.567 123.493 150.511C123.463 150.484 123.435 150.458 123.412 150.435C123.402 150.425 123.385 150.408 123.369 150.388C123.361 150.379 123.344 150.359 123.327 150.332C123.318 150.319 123.303 150.294 123.288 150.26C123.277 150.236 123.245 150.16 123.245 150.057C123.245 149.929 123.295 149.837 123.303 149.822C123.32 149.79 123.337 149.766 123.345 149.754C123.364 149.729 123.381 149.71 123.391 149.699C123.411 149.677 123.435 149.654 123.456 149.634C123.5 149.592 123.56 149.537 123.634 149.472C123.782 149.341 123.998 149.155 124.272 148.921C124.822 148.453 125.616 147.787 126.594 146.973C128.551 145.345 131.248 143.121 134.211 140.695L134.212 140.695C137.174 138.279 139.858 136.065 141.793 134.446C142.761 133.636 143.54 132.977 144.072 132.515C144.339 132.284 144.541 132.105 144.672 131.984C144.683 131.973 144.693 131.964 144.703 131.955C144.703 131.945 144.702 131.935 144.702 131.924C144.699 131.776 144.696 131.559 144.693 131.278C144.686 130.716 144.678 129.891 144.67 128.833C144.654 126.716 144.635 123.664 144.615 119.903C144.601 117.448 144.588 114.691 144.574 111.695C144.569 111.646 144.571 111.61 144.572 111.596L144.572 111.594C144.573 111.591 144.573 111.587 144.573 111.584C144.573 111.445 144.572 111.305 144.571 111.165C144.513 111.066 144.375 110.913 144.038 110.734C143.517 110.457 142.581 110.156 140.934 109.926C139.293 109.698 136.979 109.545 133.722 109.545H133.714C129.154 109.545 123.324 109.545 118.706 109.307C116.399 109.188 114.371 109.009 112.948 108.735C112.244 108.6 111.645 108.434 111.229 108.217ZM92.1837 153.785C92.1839 153.784 92.1839 153.782 92.1831 153.778C92.1831 153.783 92.1835 153.785 92.1837 153.785ZM144.784 132.401C144.764 132.365 144.74 132.308 144.731 132.284C144.743 132.323 144.761 132.365 144.787 132.407L144.784 132.401Z" fill="white" stroke="white"/>
<path d="M64.4032 164.218L64.4036 164.217C68.807 160.58 72.8273 157.277 75.7565 154.884C77.2213 153.687 78.4127 152.718 79.2426 152.048C79.6577 151.713 79.9813 151.454 80.203 151.28C80.2341 151.255 80.2631 151.232 80.29 151.211C80.3821 151.269 80.4956 151.344 80.6273 151.431C80.989 151.673 81.4721 152.007 81.9924 152.375C83.6358 153.587 86.8682 155.803 90.893 158.537L90.8945 158.538C91.584 159.003 92.6758 159.715 93.3417 160.144L93.3492 160.149L93.3492 160.149C94.0031 160.554 95.3245 161.439 96.2689 162.097C97.2325 162.771 98.4239 163.597 98.9564 163.949C99.1845 164.106 99.3902 164.267 99.5376 164.399C99.3534 164.558 99.0332 164.794 98.4944 165.155C97.3856 165.897 95.4297 167.116 92.041 169.196L92.0407 169.196C88.5563 171.339 85.4669 173.257 85.1794 173.441L85.1709 173.447L85.1627 173.453C84.8948 173.641 83.8198 174.325 82.7482 174.987C81.6879 175.642 80.4494 176.423 80.0075 176.732C79.5689 177.026 78.1913 177.892 76.9258 178.665L64.4032 164.218ZM64.4032 164.218C59.9995 167.847 55.9891 171.162 53.0747 173.581C51.6174 174.79 50.4345 175.775 49.6137 176.462C49.23 176.783 48.926 177.039 48.7105 177.222C48.7721 177.279 48.8423 177.342 48.9206 177.41C49.2934 177.738 49.8235 178.172 50.4211 178.628L50.4211 178.628L50.4277 178.633C50.6189 178.785 50.8604 178.975 51.1418 179.197C52.6085 180.355 55.161 182.37 57.3443 184.13C59.563 185.913 62.3317 187.994 64.636 189.645C65.7883 190.471 66.8207 191.187 67.6078 191.703C68.002 191.962 68.3297 192.167 68.5778 192.31C68.7022 192.382 68.801 192.435 68.8749 192.47C68.9004 192.482 68.9198 192.491 68.9339 192.497L64.4032 164.218ZM48.4317 176.944C48.4319 176.944 48.4321 176.945 48.4324 176.945L48.4317 176.944Z" fill="white" stroke="white"/>
<path d="M66.9989 23.555C66.6319 23.5677 66.3488 23.5822 66.1549 23.5983C66.1381 23.6709 66.1193 23.7569 66.0986 23.8553C66.0285 24.1882 65.9414 24.6448 65.8483 25.1659C65.6622 26.2083 65.4551 27.4951 65.3174 28.544L65.3176 28.5441L65.3157 28.5558C65.1654 29.523 64.5233 33.3414 63.8822 37.05C63.2412 40.7571 62.668 44.1816 62.6031 44.672L62.5608 45.0394L76.6868 45.0731L76.6874 45.0731C81.5181 45.0906 85.1978 45.0906 87.6744 45.0709C88.9134 45.0611 89.8478 45.0464 90.4736 45.0266C90.6623 45.0207 90.8205 45.0143 90.9492 45.0077C90.9478 44.9948 90.9462 44.9815 90.9447 44.9679C90.9108 44.677 90.8485 44.267 90.7608 43.7573C90.586 42.7404 90.315 41.3524 89.9845 39.7816C89.4489 37.3265 89.2336 36.2164 88.8264 33.8134C88.6564 32.8569 88.2303 30.6946 87.8885 29.0161C87.7176 28.1766 87.5306 27.2626 87.3676 26.4665L87.2721 26.0001C87.1511 25.4092 87.0505 24.918 86.9907 24.6245L86.9907 24.6245L86.9895 24.6183L86.8092 23.6714L80.1198 23.5725L80.1192 23.5725C76.2847 23.5113 72.7293 23.4894 70.1179 23.5047C68.8116 23.5124 67.745 23.5293 66.9989 23.555ZM66.161 23.4616C66.1626 23.4596 66.1641 23.4576 66.1655 23.4556L66.161 23.4616Z" fill="white" stroke="white"/>
<path d="M117.999 23.555C117.632 23.5677 117.349 23.5822 117.155 23.5983C117.138 23.6709 117.119 23.7569 117.099 23.8553C117.029 24.1882 116.941 24.6448 116.848 25.1659C116.662 26.2083 116.455 27.4951 116.317 28.544L116.318 28.5441L116.316 28.5558C116.165 29.523 115.523 33.3414 114.882 37.05C114.241 40.7571 113.668 44.1816 113.603 44.672L113.561 45.0394L127.687 45.0731L127.687 45.0731C132.518 45.0906 136.198 45.0906 138.674 45.0709C139.913 45.0611 140.848 45.0464 141.474 45.0266C141.662 45.0207 141.82 45.0143 141.949 45.0077C141.948 44.9948 141.946 44.9815 141.945 44.9679C141.911 44.677 141.848 44.267 141.761 43.7573C141.586 42.7404 141.315 41.3524 140.984 39.7816C140.449 37.3265 140.234 36.2164 139.826 33.8134C139.656 32.8569 139.23 30.6946 138.889 29.0161C138.718 28.1766 138.531 27.2626 138.368 26.4665L138.272 26.0001C138.151 25.4092 138.05 24.918 137.991 24.6245L137.991 24.6245L137.989 24.6183L137.809 23.6714L131.12 23.5725L131.119 23.5725C127.285 23.5113 123.729 23.4894 121.118 23.5047C119.812 23.5124 118.745 23.5293 117.999 23.555ZM117.161 23.4616C117.163 23.4596 117.164 23.4576 117.166 23.4556L117.161 23.4616Z" fill="white" stroke="white"/>
</svg>
