<svg width="206" height="254" viewBox="0 0 206 254" fill="none" xmlns="http://www.w3.org/2000/svg">
<path d="M124.973 10.2175C124.973 10.4334 124.218 16.1898 123.257 23.0255C122.295 29.8612 121.54 35.7615 121.54 36.1932C121.54 36.8408 125.317 37.0566 135.273 37.0566C143.994 37.0566 149.007 36.7688 149.007 36.3371C149.007 34.5382 145.299 11.081 144.955 10.6493C144.406 10.0017 124.973 9.56995 124.973 10.2175ZM142.827 13.6714C143.101 14.1751 143.582 16.4056 143.857 18.6362C144.131 20.8668 144.406 23.1694 144.543 23.745C144.955 25.9756 145.711 31.3722 145.848 32.7394C145.917 34.1065 145.505 34.1785 136.303 34.2504C125.729 34.2504 124.149 33.8906 124.561 31.4442C124.767 30.5807 125.385 26.0476 126.072 21.4425C127.445 11.6566 126.827 12.2323 136.235 12.5201C140.149 12.664 142.483 13.0957 142.827 13.6714Z" fill="white"/>
<path d="M61.5254 11.6567C61.1134 13.7434 58.3667 35.4017 58.3667 36.553C58.3667 37.2006 62.006 37.4164 71.9627 37.4164C79.4474 37.4164 85.7647 37.2725 85.902 37.1286C86.0394 36.9128 85.284 30.7966 84.1854 23.4572L82.1254 10.0737H71.9627C62.006 10.0737 61.8 10.0737 61.5254 11.6567ZM79.722 13.7434C80.546 15.1824 82.4687 27.6306 82.6747 32.7394C82.7434 34.1065 82.2627 34.1785 72.7867 34.3224C67.2934 34.4663 62.4867 34.2504 62.006 33.9626C61.388 33.5309 61.388 31.9479 62.1434 26.983C62.6927 23.3853 63.1734 19.3558 63.1734 17.9887C63.242 13.1677 64.9587 12.3762 74.4347 12.664C77.3874 12.8079 79.3787 13.1677 79.722 13.7434Z" fill="white"/>
<path d="M5.63068 42.0216C5.83668 54.038 6.24868 64.3275 6.59201 64.9751C6.93535 65.5508 12.154 71.0193 18.1967 77.0635C24.2393 83.1077 33.6467 92.6057 39.14 98.1462C52.118 111.386 57.7487 116.711 58.1607 116.279C58.7787 115.631 57.062 113.257 52.736 109.011C49.1654 105.414 19.57 75.7683 10.8493 66.8459C8.30868 64.3275 8.24001 64.0397 8.24001 59.2907C8.17135 56.5564 8.03401 49.361 7.82801 43.3168C7.41601 32.6675 7.82801 25.9037 8.78935 25.9037C9.47601 25.9757 13.3213 29.6454 24.0333 40.4386C40.788 57.4199 43.6034 60.1542 45.32 61.3774C47.5174 62.9604 55.4827 63.0323 57.4054 61.5213C58.5727 60.5859 58.092 60.5139 52.5987 60.442H46.4874L38.522 52.3111C15.45 28.8539 6.59201 20.1474 5.83668 20.1474C5.56201 20.1474 5.42468 30.0051 5.63068 42.0216Z" fill="white"/>
<path d="M194.67 24.2487C190.825 28.0623 181.349 37.6323 165.418 53.7502L158.826 60.4419H152.509C147.702 60.4419 146.191 60.6578 146.397 61.3054C146.603 61.953 148.526 62.3128 151.822 62.4567C158.002 62.7445 159.375 62.3847 161.847 60.0102C163.77 58.1394 179.014 42.885 190.138 31.732C193.365 28.4941 196.318 25.9037 196.73 25.9037C197.279 25.9037 197.417 31.0125 197.348 43.8204C197.211 58.8589 197.005 61.953 196.112 63.464C195.494 64.3994 189.52 70.7315 182.859 77.4952C156.835 103.759 146.26 114.84 146.26 115.703C146.26 116.279 146.535 116.567 146.878 116.423C147.427 116.207 167.615 95.9156 191.58 71.451L198.79 64.1116L199.133 42.0935C199.339 30.0051 199.339 20.1473 199.133 20.1473C198.927 20.1473 196.936 22.0181 194.67 24.2487Z" fill="white"/>
<path d="M59.0533 114.12V167.87L61.3193 170.101C64.89 173.627 87.2753 193.918 87.8247 194.134C88.0993 194.206 89.4727 191.831 90.846 188.737C92.1507 185.643 94.966 179.311 97.026 174.562C100.116 167.726 100.734 165.712 100.253 164.344C99.91 163.409 98.5367 157.365 97.1633 150.817L94.76 138.944L94.6227 99.6572L94.554 60.4419H76.838H59.0533V114.12ZM92.5627 63.2482C93.4553 63.3201 93.4553 72.8901 92.3567 102.104C92.1507 107.788 92.288 113.544 92.6313 114.84C93.112 116.567 93.0433 117.286 92.3567 117.574C91.052 118.078 66.2633 118.078 63.1047 117.574L60.4267 117.07V89.8714V62.6725L76.0827 62.8884C84.666 63.0323 92.082 63.1762 92.5627 63.2482ZM91.052 119.733C91.6013 119.948 91.876 123.186 91.9447 129.59C92.082 138.873 92.9747 144.917 96.4767 159.236C97.0947 161.538 97.3007 163.769 97.0947 164.201C96.82 164.704 96.9573 164.776 97.3693 164.488C97.85 164.201 98.1933 164.416 98.1933 165.064C98.1933 165.712 97.9187 166.215 97.644 166.215C97.3693 166.215 97.0947 166.863 97.026 167.654C96.9573 168.446 95.0347 173.195 92.7687 178.232C87.962 188.737 87.6187 189.385 87.0693 189.529C86.5887 189.601 73.8167 178.376 67.2933 172.044L62.1433 167.079V143.406V119.805H65.7827C67.7053 119.805 69.3533 119.661 69.3533 119.445C69.3533 119.013 89.9533 119.301 91.052 119.733Z" fill="white"/>
<path d="M95.4467 61.0896C95.4467 62.4567 97.026 62.7445 102.725 62.6726C108.768 62.5287 110.553 62.1689 110.553 61.0896C110.553 60.7298 107.189 60.442 103 60.442C98.7427 60.442 95.4467 60.7298 95.4467 61.0896Z" fill="white"/>
<path d="M111.24 98.7219C111.24 129.159 111.034 137.937 110.279 141.391C109.729 143.765 108.493 149.882 107.463 154.918C105.678 164.273 104.648 167.007 96.5453 185.571C94.0733 191.328 92.0133 196.364 92.0133 196.796C92.0133 197.66 102.794 207.086 125.935 226.585C133.557 232.989 139.119 238.242 139.256 239.033C139.393 239.969 138.501 241.408 136.647 243.207C134.106 245.653 133.969 246.013 135.136 246.445C137.265 247.092 143.033 242.775 150.723 234.644L157.521 227.377L140.561 209.604L123.6 191.831L134.587 180.462L145.573 169.094V114.768V60.442H128.407H111.24V98.7219ZM143.445 63.2482C144.2 63.7519 144.406 68.7887 144.475 90.519L144.543 117.142L142.552 117.574C139.668 118.222 114.467 118.078 113.643 117.43C113.3 117.142 112.957 114.48 112.957 111.53C112.957 108.58 112.819 99.5134 112.682 91.3825C112.545 83.2516 112.476 73.4658 112.545 69.6522L112.613 62.6726H127.583C135.754 62.6726 142.964 62.9604 143.445 63.2482ZM142.552 120.236C143.239 121.46 142.964 166.719 142.277 168.158C141.865 168.878 137.608 173.627 132.664 178.735C122.845 188.953 121.403 190.968 122.227 193.27C122.57 194.134 129.643 202.049 137.951 210.827C146.329 219.678 153.127 227.161 153.127 227.521C153.127 227.881 150.861 230.615 148.045 233.637L142.964 239.105L138.226 233.925C135.548 231.118 133.213 228.816 133.007 228.816C132.595 228.816 121.54 219.75 115.978 214.857C114.536 213.633 112.133 211.475 110.485 210.108C108.905 208.741 106.433 206.582 105.129 205.359C103.755 204.135 102.039 202.624 101.283 201.977C96.4766 198.019 95.4466 196.868 95.4466 195.717C95.4466 194.494 96.8886 191.04 102.794 177.728C106.914 168.518 108.425 163.769 110.553 152.76C111.652 146.86 112.888 140.959 113.3 139.592C113.643 138.225 113.987 133.332 113.987 128.655C113.987 122.611 114.261 120.164 114.879 119.948C116.665 119.157 142.071 119.445 142.552 120.236Z" fill="white"/>
<path d="M95.4467 92.0301C95.4467 92.8935 109.867 106.709 110.279 106.277C111.034 105.486 109.249 103.255 103.275 97.5706C97.0947 91.7422 95.4467 90.519 95.4467 92.0301Z" fill="white"/>
<path d="M63.448 210.252L47.0366 227.449L54.59 235.004C65.3706 245.797 68.2546 248.244 69.2846 247.596C69.9713 247.164 69.5593 246.085 67.7053 243.279C66.332 241.264 65.2333 239.393 65.302 239.105C65.302 238.746 67.4993 236.803 70.246 234.644C90.7773 218.382 99.5666 211.259 99.5666 210.827C99.5666 210.539 95.1033 206.438 89.6786 201.617L79.8593 192.982L63.448 210.252ZM84.048 200.178C85.9706 201.905 88.3053 203.92 89.198 204.711C93.7986 208.669 95.4466 210.324 95.4466 210.755C95.4466 211.115 92.1506 213.921 88.0993 217.159C72.306 229.679 67.568 233.565 65.0273 236.227L62.418 238.962L59.8773 236.659C54.59 231.766 51.5 228.456 51.5 227.449C51.5 226.297 78.898 197.156 79.928 197.156C80.2713 197.156 82.194 198.523 84.048 200.178Z" fill="white"/>
</svg>
